<svg width="500" height="500" viewBox="0 0 500 500" fill="none" xmlns="http://www.w3.org/2000/svg">
<g clip-path="url(#clip0_7_749)">
<path d="M104.24 145.58C105.312 152.784 104.223 160.145 101.109 166.73C97.9949 173.314 92.997 178.827 86.7481 182.569C80.4991 186.311 73.2802 188.115 66.0055 187.752C58.7307 187.389 51.7274 184.875 45.8824 180.528C40.0374 176.182 35.6137 170.199 33.1713 163.337C30.729 156.475 30.378 149.042 32.1628 141.98C33.9476 134.919 37.7878 128.545 43.1972 123.668C48.6066 118.79 55.3419 115.627 62.55 114.58C72.1883 113.169 81.9925 115.641 89.8094 121.454C97.6262 127.266 102.816 135.944 104.24 145.58Z" fill="#F5F5F5"/>
<path d="M95.58 146.84C96.3792 152.319 95.5364 157.911 93.1579 162.911C90.7795 167.91 86.9722 172.093 82.2174 174.929C77.4625 177.765 71.9736 179.128 66.4442 178.846C60.9149 178.563 55.5935 176.648 51.1525 173.341C46.7116 170.035 43.3505 165.486 41.4941 160.27C39.6378 155.054 39.3694 149.405 40.723 144.037C42.0766 138.668 44.9914 133.821 49.0989 130.109C53.2064 126.397 58.3223 123.985 63.8 123.18C67.4405 122.645 71.1508 122.832 74.7188 123.732C78.2868 124.631 81.6425 126.226 84.594 128.423C87.5455 130.62 90.035 133.378 91.92 136.538C93.8051 139.698 95.0488 143.199 95.58 146.84Z" fill="#EBEBEB"/>
<path d="M95.45 146C95.28 146 94.98 144.83 94.23 142.77C93.1698 139.891 91.6722 137.193 89.79 134.77C88.4931 133.107 87.0139 131.594 85.38 130.26C83.5092 128.737 81.4487 127.463 79.25 126.47C76.8301 125.373 74.263 124.635 71.63 124.28C70.2422 124.086 68.8411 124.002 67.44 124.03C64.5449 124.083 61.6763 124.593 58.94 125.54C56.3278 126.435 53.869 127.727 51.65 129.37C50.5881 130.137 49.5853 130.983 48.65 131.9C46.9304 133.588 45.4349 135.491 44.2 137.56C43.1296 139.379 42.2643 141.311 41.62 143.32C40.6849 146.252 40.2126 149.312 40.22 152.39C40.22 154.59 40.36 155.81 40.22 155.84C40.08 155.87 39.68 154.68 39.41 152.44C39.08 149.236 39.3445 145.998 40.19 142.89C40.7713 140.732 41.6072 138.651 42.68 136.69C43.9295 134.43 45.4766 132.348 47.28 130.5C48.2529 129.5 49.2991 128.574 50.41 127.73C51.5719 126.844 52.8025 126.051 54.09 125.36C55.4217 124.636 56.8095 124.021 58.24 123.52C61.1859 122.489 64.2792 121.942 67.4 121.9C68.9152 121.88 70.4297 121.977 71.93 122.19C73.3741 122.411 74.7985 122.745 76.19 123.19C77.5277 123.594 78.8317 124.102 80.09 124.71C82.4164 125.821 84.5826 127.241 86.53 128.93C88.2166 130.413 89.7206 132.091 91.01 133.93C92.8694 136.554 94.2256 139.501 95.01 142.62C95.56 144.69 95.57 146 95.45 146Z" fill="#E0E0E0"/>
<path d="M73.37 167L74.1399 171.82L69.8399 172.51L69.0899 167.82C64.7799 168.24 60.47 167.56 57.81 166.09L59.34 160.46C62.0885 161.788 65.1342 162.38 68.18 162.18L67 155C62 154.61 56.44 153.87 55.45 147.71C54.72 143.14 57.4499 138.71 64.0899 136.83L63.3499 132L67.66 131.31L68.41 136C71.5209 135.677 74.6641 136.099 77.58 137.23L76.2699 142.87C74.0387 142.014 71.6586 141.612 69.2699 141.69L70.5 149C75.5 149.35 80.97 150.11 81.94 156.18C82.65 160.67 80 165.07 73.37 167ZM66 148.62L65 142.51C62.8 143.39 62.09 144.78 62.32 146.21C62.55 147.64 64 148.32 66 148.62ZM75.07 157.82C74.82 156.31 73.4499 155.69 71.4899 155.34L72.44 161.28C74.54 160.47 75.3099 159.2 75.0899 157.82H75.07Z" fill="#E0E0E0"/>
<path d="M372.73 66.63C373.809 73.9335 372.696 81.3928 369.534 88.0639C366.371 94.7349 361.301 100.318 354.964 104.106C348.627 107.894 341.309 109.717 333.936 109.344C326.562 108.971 319.466 106.419 313.543 102.011C307.621 97.6027 303.14 91.5368 300.666 84.5807C298.193 77.6246 297.839 70.0911 299.649 62.9337C301.459 55.7763 305.352 49.3169 310.835 44.3729C316.318 39.4289 323.144 36.2227 330.45 35.16C340.23 33.7268 350.178 36.2371 358.107 42.1389C366.036 48.0406 371.296 56.8503 372.73 66.63Z" fill="#F5F5F5"/>
<path d="M363.94 67.91C364.758 73.4754 363.907 79.1584 361.494 84.2399C359.081 89.3213 355.215 93.5728 350.385 96.4562C345.555 99.3397 339.979 100.726 334.361 100.438C328.743 100.151 323.336 98.2038 318.826 94.8428C314.315 91.4818 310.903 86.8582 309.021 81.5572C307.139 76.2561 306.872 70.5159 308.253 65.063C309.635 59.6101 312.603 54.6896 316.782 50.9242C320.961 47.1588 326.163 44.7177 331.73 43.91C335.421 43.3691 339.182 43.561 342.799 44.4747C346.416 45.3883 349.817 47.0058 352.809 49.2347C355.8 51.4636 358.323 54.2602 360.233 57.4646C362.143 60.669 363.403 64.2185 363.94 67.91Z" fill="#EBEBEB"/>
<path d="M363.81 67C363.64 67 363.34 65.81 362.57 63.72C360.773 58.7454 357.663 54.35 353.57 51C351.671 49.4566 349.581 48.1658 347.35 47.16C346.153 46.6097 344.916 46.1517 343.65 45.79C342.34 45.4041 341.003 45.1167 339.65 44.93C338.242 44.7401 336.821 44.6565 335.4 44.68C333.935 44.7206 332.475 44.8643 331.03 45.11C329.592 45.3751 328.175 45.7427 326.79 46.21C325.445 46.6765 324.138 47.2448 322.88 47.91C321.66 48.5454 320.493 49.2777 319.39 50.1C318.328 50.8784 317.326 51.734 316.39 52.66C314.644 54.3734 313.128 56.3062 311.88 58.41C310.792 60.2498 309.914 62.2052 309.26 64.24C308.309 67.2137 307.83 70.318 307.84 73.44C307.84 75.66 307.98 76.91 307.84 76.94C307.7 76.97 307.29 75.76 307.02 73.48C306.679 70.2323 306.947 66.9495 307.81 63.8C308.4 61.6103 309.25 59.4987 310.34 57.51C311.608 55.2346 313.175 53.1393 315 51.28C317.029 49.204 319.358 47.4444 321.91 46.06C323.259 45.3314 324.664 44.7095 326.11 44.2C329.101 43.1527 332.241 42.5955 335.41 42.55C336.942 42.5329 338.473 42.6332 339.99 42.85C341.457 43.071 342.905 43.4053 344.32 43.85C345.675 44.259 346.996 44.7739 348.27 45.39C352.702 47.4898 356.516 50.7005 359.34 54.71C361.238 57.3652 362.618 60.3539 363.41 63.52C363.92 65.73 363.93 67 363.81 67Z" fill="#E0E0E0"/>
<path d="M341.43 88.32L342.21 93.21L337.85 93.91L337.08 89.15C332.72 89.58 328.35 88.89 325.65 87.39L327.2 81.68C329.997 83.0344 333.099 83.6374 336.2 83.43L335 76.13C330 75.73 324.29 74.98 323.29 68.74C322.55 64.11 325.29 59.6 332.05 57.74L331.27 52.89L335.64 52.19L336.4 56.95C339.552 56.6222 342.737 57.0507 345.69 58.2L344.37 63.92C342.123 63.0538 339.726 62.6458 337.32 62.72L338.51 70.14C343.51 70.5 349.13 71.26 350.11 77.42C350.84 81.93 348.15 86.39 341.43 88.32ZM334 69.72L333 63.52C330.77 64.41 330.06 65.82 330.29 67.27C330.52 68.72 332 69.41 334 69.72ZM343.2 79.04C342.95 77.51 341.55 76.88 339.57 76.53L340.57 82.53C342.61 81.72 343.39 80.43 343.17 79L343.2 79.04Z" fill="#E0E0E0"/>
<path d="M470.88 186.28C471.694 191.841 470.841 197.519 468.427 202.595C466.014 207.671 462.149 211.917 457.321 214.796C452.494 217.675 446.922 219.057 441.308 218.768C435.695 218.479 430.294 216.531 425.788 213.172C421.282 209.812 417.874 205.192 415.995 199.895C414.115 194.598 413.85 188.862 415.231 183.414C416.612 177.966 419.578 173.05 423.754 169.288C427.93 165.526 433.128 163.087 438.69 162.28C442.38 161.739 446.14 161.931 449.756 162.845C453.371 163.759 456.771 165.377 459.761 167.606C462.751 169.835 465.272 172.632 467.18 175.836C469.088 179.04 470.345 182.589 470.88 186.28Z" fill="#F5F5F5"/>
<path d="M464.19 187.25C464.818 191.488 464.175 195.818 462.341 199.69C460.508 203.562 457.566 206.804 453.89 209.004C450.213 211.203 445.966 212.263 441.687 212.048C437.408 211.832 433.289 210.352 429.851 207.795C426.413 205.237 423.812 201.717 422.376 197.681C420.94 193.644 420.734 189.272 421.785 185.118C422.835 180.964 425.094 177.215 428.276 174.346C431.458 171.477 435.42 169.616 439.66 169C445.332 168.173 451.101 169.63 455.7 173.052C460.298 176.473 463.352 181.579 464.19 187.25Z" fill="#EBEBEB"/>
<path d="M464.08 186.58C463.691 185.777 463.377 184.94 463.14 184.08C462.327 181.849 461.173 179.758 459.72 177.88C458.718 176.599 457.578 175.432 456.32 174.4C454.875 173.225 453.286 172.24 451.59 171.47C450.674 171.072 449.732 170.737 448.77 170.47C446.721 169.875 444.594 169.592 442.46 169.63C441.347 169.658 440.238 169.765 439.14 169.95C438.042 170.156 436.96 170.436 435.9 170.79C432.929 171.814 430.226 173.492 427.99 175.7C426.659 177.005 425.502 178.477 424.55 180.08C423.721 181.478 423.05 182.964 422.55 184.51C421.831 186.774 421.466 189.135 421.47 191.51C421.572 192.394 421.572 193.286 421.47 194.17C421.084 193.346 420.873 192.45 420.85 191.54C420.591 189.071 420.795 186.575 421.45 184.18C421.897 182.511 422.545 180.903 423.38 179.39C424.336 177.645 425.527 176.04 426.92 174.62C427.67 173.845 428.479 173.129 429.34 172.48C430.234 171.792 431.184 171.18 432.18 170.65C433.206 170.09 434.276 169.615 435.38 169.23C436.518 168.834 437.685 168.527 438.87 168.31C440.057 168.108 441.257 167.994 442.46 167.97C443.628 167.956 444.794 168.033 445.95 168.2C448.133 168.528 450.255 169.175 452.25 170.12C455.626 171.715 458.53 174.158 460.68 177.21C462.125 179.233 463.176 181.509 463.78 183.92C464.072 184.774 464.174 185.682 464.08 186.58Z" fill="#E0E0E0"/>
<path d="M447 202.79L447.6 206.51L444.28 207.04L443.7 203.42C440.729 203.801 437.712 203.34 434.99 202.09L436.17 197.74C438.293 198.766 440.647 199.221 443 199.06L442.11 193.51C438.28 193.21 433.96 192.64 433.2 187.88C432.63 184.36 434.71 180.88 439.86 179.48L439.27 175.79L442.6 175.26L443.18 178.88C445.582 178.653 448.005 178.996 450.25 179.88L449.25 184.24C447.541 183.586 445.72 183.273 443.89 183.32L444.8 188.97C448.62 189.25 452.88 189.83 453.63 194.52C454.21 197.92 452.16 201.32 447 202.79ZM441.33 188.63L440.57 183.91C438.87 184.59 438.33 185.66 438.51 186.76C438.69 187.86 439.83 188.4 441.37 188.63H441.33ZM448.33 195.72C448.14 194.56 447.08 194.08 445.57 193.81L446.3 198.4C448 197.77 448.54 196.79 448.37 195.72H448.33Z" fill="#E0E0E0"/>
<path d="M205.42 389.69C204.021 395.948 200.797 401.65 196.156 406.075C191.516 410.499 185.667 413.448 179.35 414.548C173.032 415.648 166.531 414.849 160.668 412.253C154.805 409.656 149.844 405.379 146.412 399.963C142.981 394.546 141.233 388.233 141.391 381.823C141.548 375.413 143.603 369.193 147.297 363.951C150.99 358.71 156.155 354.681 162.138 352.376C168.122 350.07 174.654 349.592 180.91 351C185.061 351.929 188.988 353.667 192.466 356.115C195.945 358.563 198.907 361.672 201.183 365.265C203.46 368.859 205.005 372.865 205.732 377.056C206.459 381.247 206.353 385.54 205.42 389.69Z" fill="#F5F5F5"/>
<path d="M197.9 388C196.837 392.77 194.382 397.118 190.846 400.493C187.311 403.868 182.854 406.118 178.039 406.958C173.224 407.799 168.268 407.192 163.799 405.214C159.329 403.237 155.546 399.978 152.93 395.85C150.313 391.722 148.98 386.91 149.099 382.024C149.218 377.138 150.784 372.397 153.599 368.401C156.414 364.406 160.351 361.335 164.912 359.578C169.472 357.82 174.452 357.456 179.22 358.53C182.382 359.237 185.374 360.56 188.025 362.424C190.676 364.288 192.933 366.657 194.668 369.394C196.403 372.13 197.581 375.182 198.136 378.375C198.69 381.568 198.61 384.838 197.9 388Z" fill="#EBEBEB"/>
<path d="M198.06 387.24C197.962 386.242 197.962 385.238 198.06 384.24C198.103 381.531 197.725 378.833 196.94 376.24C196.396 374.465 195.658 372.754 194.74 371.14C193.68 369.313 192.385 367.632 190.89 366.14C190.091 365.317 189.228 364.558 188.31 363.87C187.363 363.144 186.36 362.496 185.31 361.93C184.229 361.333 183.102 360.825 181.94 360.41C179.547 359.533 177.028 359.046 174.48 358.97C173.244 358.927 172.007 358.981 170.78 359.13C169.595 359.275 168.422 359.506 167.27 359.82C166.166 360.123 165.087 360.508 164.04 360.97C162.09 361.817 160.259 362.913 158.59 364.23C157.142 365.387 155.824 366.698 154.66 368.14C152.975 370.254 151.626 372.615 150.66 375.14C150.384 376.118 150.012 377.066 149.55 377.97C149.44 377.97 149.47 376.84 149.96 374.91C150.689 372.169 151.923 369.588 153.6 367.3C154.759 365.711 156.101 364.264 157.6 362.99C159.335 361.526 161.259 360.301 163.32 359.35C164.443 358.809 165.606 358.358 166.8 358C169.32 357.27 171.937 356.932 174.56 357C177.309 357.082 180.027 357.605 182.61 358.55C183.859 359.011 185.069 359.569 186.23 360.22C187.357 360.843 188.431 361.559 189.44 362.36C190.412 363.116 191.325 363.945 192.17 364.84C193.745 366.485 195.09 368.335 196.17 370.34C197.087 372.08 197.796 373.923 198.28 375.83C198.989 378.577 199.183 381.432 198.85 384.25C198.56 386.23 198.17 387.26 198.06 387.24Z" fill="#E0E0E0"/>
<path d="M173.29 397.56L172.41 401.77L168.65 400.98L169.51 396.88C165.84 395.88 162.51 393.96 160.78 391.88L163.78 387.73C165.628 389.686 167.95 391.133 170.52 391.93L171.83 385.65C167.83 383.76 163.51 381.39 164.64 376.01C165.47 372.01 169.09 369.21 175.17 369.78L176.04 365.61L179.8 366.4L178.94 370.5C181.596 371.217 184.045 372.55 186.09 374.39L183.24 378.62C181.687 377.224 179.872 376.149 177.9 375.46L176.56 381.85C180.56 383.71 184.82 386.06 183.71 391.36C182.91 395.3 179.35 398.08 173.29 397.56ZM173 380.15L174.12 374.81C172.03 374.81 171.01 375.81 170.75 377.01C170.49 378.21 171.48 379.28 173 380.15ZM177.56 390.57C177.83 389.25 176.89 388.31 175.4 387.41L174.31 392.6C176.3 392.58 177.34 391.77 177.59 390.57H177.56Z" fill="#E0E0E0"/>
<path d="M330.64 358.62L304.64 342.43C303.619 341.788 302.475 341.367 301.281 341.195C300.087 341.022 298.871 341.103 297.71 341.43L233.26 359.91C232.165 360.225 231.143 360.753 230.253 361.465C229.364 362.177 228.624 363.059 228.077 364.058C227.531 365.058 227.187 366.156 227.068 367.289C226.948 368.423 227.054 369.568 227.38 370.66L240.9 416.16C241.223 417.247 241.757 418.259 242.472 419.139C243.187 420.019 244.069 420.75 245.067 421.288C246.064 421.827 247.158 422.164 248.286 422.279C249.414 422.394 250.554 422.286 251.64 421.96L315.64 402.81C316.823 402.453 317.916 401.848 318.846 401.034C319.776 400.219 320.52 399.216 321.03 398.09L333.94 369.45C334.788 367.55 334.92 365.408 334.314 363.418C333.708 361.428 332.403 359.724 330.64 358.62ZM322.1 369.72C321.961 371.119 321.409 372.446 320.516 373.532C319.623 374.618 318.427 375.415 317.081 375.821C315.735 376.228 314.299 376.226 312.953 375.816C311.608 375.407 310.415 374.607 309.524 373.519C308.633 372.431 308.085 371.103 307.948 369.704C307.812 368.304 308.094 366.896 308.758 365.656C309.423 364.417 310.44 363.402 311.681 362.741C312.921 362.079 314.331 361.801 315.73 361.94C317.605 362.13 319.329 363.055 320.523 364.513C321.717 365.972 322.284 367.844 322.1 369.72Z" fill="#EBEBEB"/>
<path d="M253.29 379.75C251.72 374.21 254.09 369.75 258.88 368.37C263.67 366.99 267.98 369.54 269.57 375.12C271.16 380.7 268.81 385.12 264.03 386.48C259.25 387.84 254.87 385.28 253.29 379.75ZM264.88 376.45C263.88 372.93 262.04 371.63 259.97 372.22C257.9 372.81 257 374.93 258 378.4C259 381.87 260.89 383.21 262.9 382.63C264.91 382.05 265.88 380 264.88 376.45ZM278.54 363.18L284.12 361.6L271.05 400.81L265.47 402.39L278.54 363.18ZM280 388.87C278.43 383.34 280.8 378.87 285.54 377.51C290.28 376.15 294.7 378.71 296.28 384.24C297.86 389.77 295.48 394.24 290.69 395.62C285.9 397 281.6 394.41 280 388.87ZM291.54 385.59C290.54 382.12 288.7 380.77 286.63 381.36C284.56 381.95 283.69 384.02 284.69 387.54C285.69 391.06 287.58 392.34 289.6 391.77C291.62 391.2 292.55 389.06 291.56 385.59H291.54Z" fill="white"/>
<path d="M332.49 372.79C332.759 372.85 333.021 372.941 333.27 373.06C333.76 373.27 334.49 373.57 335.42 373.99C336.35 374.41 337.48 374.93 338.78 375.58C340.08 376.23 341.53 377 343.09 377.96C344.8 378.998 346.419 380.178 347.93 381.49L348.54 382.03L349.14 382.61C349.553 383.001 349.943 383.415 350.31 383.85C351.119 384.767 351.747 385.829 352.16 386.98C352.361 387.603 352.453 388.256 352.43 388.91C352.4 389.582 352.237 390.242 351.95 390.85C351.354 392.089 350.381 393.108 349.17 393.76C347.929 394.401 346.565 394.766 345.17 394.83C343.77 394.901 342.367 394.807 340.99 394.55C338.286 394.045 335.686 393.089 333.3 391.72C332.157 391.082 331.055 390.374 330 389.6C329 388.86 328 388.1 327.06 387.35C323.679 384.706 320.61 381.687 317.91 378.35C317.35 377.63 316.84 376.92 316.38 376.24C316.15 375.9 315.93 375.56 315.73 375.24C315.521 374.925 315.344 374.59 315.2 374.24C314.89 373.581 314.854 372.826 315.1 372.14C315.32 371.58 315.703 371.099 316.2 370.76C316.408 370.616 316.629 370.492 316.86 370.39C317.061 370.308 317.269 370.241 317.48 370.19C317.807 370.112 318.145 370.088 318.48 370.12C318.688 370.138 318.891 370.192 319.08 370.28L319.27 370.39C319.27 370.39 319.19 370.39 319.06 370.39C318.867 370.34 318.669 370.313 318.47 370.31C318.151 370.31 317.835 370.357 317.53 370.45C317.334 370.508 317.144 370.581 316.96 370.67C316.756 370.775 316.562 370.899 316.38 371.04C315.953 371.355 315.629 371.79 315.45 372.29C315.258 372.885 315.309 373.532 315.59 374.09C315.741 374.436 315.918 374.77 316.12 375.09C316.32 375.42 316.55 375.74 316.78 376.09C317.25 376.75 317.78 377.44 318.34 378.14C321.069 381.381 324.14 384.318 327.5 386.9C328.44 387.64 329.42 388.38 330.44 389.12C331.466 389.865 332.534 390.55 333.64 391.17C335.954 392.481 338.467 393.403 341.08 393.9C342.399 394.143 343.741 394.234 345.08 394.17C346.358 394.106 347.607 393.764 348.74 393.17C349.812 392.604 350.68 391.715 351.22 390.63C351.706 389.585 351.773 388.394 351.41 387.3C351.034 386.238 350.464 385.255 349.73 384.4C349.37 383.98 349 383.57 348.61 383.19L348.03 382.62L347.44 382.08C345.971 380.773 344.399 379.586 342.74 378.53C341.22 377.53 339.74 376.75 338.52 376.07C337.3 375.39 336.14 374.83 335.24 374.37L333.15 373.31C332.906 373.17 332.684 372.995 332.49 372.79Z" fill="#E0E0E0"/>
<path d="M217.08 60.09L210.68 43C210.432 42.3225 210.044 41.7049 209.541 41.1879C209.037 40.6709 208.431 40.2661 207.76 40L170.69 25.45C170.059 25.197 169.384 25.0722 168.704 25.0829C168.024 25.0937 167.353 25.2396 166.731 25.5124C166.108 25.7851 165.546 26.1792 165.077 26.6715C164.608 27.1639 164.242 27.7447 164 28.38L153.9 54.73C153.659 55.3621 153.546 56.0356 153.567 56.7116C153.588 57.3876 153.742 58.0528 154.021 58.669C154.3 59.2852 154.698 59.8402 155.192 60.302C155.686 60.7638 156.266 61.1234 156.9 61.36L194 75.51C194.687 75.7698 195.422 75.8792 196.155 75.8309C196.888 75.7826 197.603 75.5777 198.25 75.23L214.7 66.4C215.794 65.815 216.638 64.8528 217.076 63.6922C217.513 62.5316 217.515 61.2516 217.08 60.09ZM209 62.23C208.426 62.8371 207.685 63.2607 206.871 63.4474C206.057 63.6341 205.206 63.5755 204.425 63.279C203.644 62.9826 202.968 62.4615 202.483 61.7815C201.998 61.1016 201.724 60.2932 201.698 59.4582C201.672 58.6233 201.893 57.7992 202.334 57.0899C202.775 56.3806 203.417 55.8179 204.178 55.4726C204.938 55.1273 205.784 55.015 206.608 55.1498C207.433 55.2846 208.199 55.6604 208.81 56.23C209.218 56.6105 209.547 57.0679 209.778 57.576C210.008 58.0841 210.136 58.6328 210.154 59.1905C210.171 59.7482 210.079 60.3039 209.881 60.8255C209.683 61.3472 209.383 61.8245 209 62.23Z" fill="#EBEBEB"/>
<path d="M173 42C174.26 38.82 177 37.57 179.75 38.66C182.5 39.75 183.62 42.5 182.35 45.66C181.08 48.82 178.35 50.1 175.62 49.01C172.89 47.92 171.69 45.22 173 42ZM179.65 44.64C180.45 42.64 180.06 41.34 178.87 40.87C177.68 40.4 176.51 41.08 175.72 43.08C174.93 45.08 175.34 46.39 176.5 46.85C177.66 47.31 178.81 46.7 179.61 44.68L179.65 44.64ZM190.9 43.33L194.11 44.6L173.7 58.4L170.49 57.12L190.9 43.33ZM182.25 56C183.52 52.82 186.25 51.57 188.98 52.65C191.71 53.73 192.87 56.53 191.6 59.71C190.33 62.89 187.6 64.14 184.85 63.05C182.1 61.96 181 59.2 182.25 56ZM188.88 58.63C189.67 56.63 189.29 55.33 188.1 54.86C186.91 54.39 185.75 55.05 184.95 57.07C184.15 59.09 184.57 60.38 185.73 60.84C186.89 61.3 188.09 60.65 188.88 58.65V58.63Z" fill="white"/>
<path d="M212.82 67.44C212.923 67.566 213.01 67.7036 213.08 67.85C213.24 68.13 213.48 68.53 213.76 69.07C214.04 69.61 214.4 70.25 214.76 71.07C215.12 71.89 215.55 72.74 215.93 73.75C216.36 74.8596 216.694 76.0037 216.93 77.17L217.02 77.65C217.02 77.81 217.07 77.97 217.09 78.14C217.144 78.471 217.177 78.8049 217.19 79.14C217.241 79.8634 217.153 80.5899 216.93 81.28C216.799 81.6436 216.606 81.9818 216.36 82.28C216.104 82.5876 215.787 82.8395 215.43 83.02C214.703 83.3932 213.875 83.5196 213.07 83.38C212.253 83.2442 211.477 82.9263 210.8 82.45C210.139 81.9633 209.535 81.403 209 80.78C207.905 79.5648 207.026 78.1714 206.4 76.66C206.096 75.9499 205.835 75.2219 205.62 74.48C205.413 73.76 205.223 73.05 205.05 72.35C204.415 69.881 204.059 67.3485 203.99 64.8C203.99 64.26 203.99 63.74 203.99 63.25C203.99 63 203.99 62.77 204.06 62.54C204.079 62.3101 204.119 62.0825 204.18 61.86C204.279 61.4478 204.534 61.0897 204.89 60.86C205.192 60.6815 205.539 60.5947 205.89 60.61C206.038 60.6212 206.186 60.6446 206.33 60.68C206.458 60.7096 206.582 60.7532 206.7 60.81C206.885 60.889 207.055 61.0008 207.2 61.14C207.295 61.2245 207.373 61.3263 207.43 61.44C207.43 61.51 207.48 61.55 207.43 61.55C207.38 61.55 207.43 61.55 207.35 61.46C207.275 61.3691 207.191 61.2854 207.1 61.21C206.95 61.0918 206.781 61.0004 206.6 60.94C206.49 60.8949 206.377 60.8613 206.26 60.84C206.124 60.8247 205.986 60.8247 205.85 60.84C205.557 60.8127 205.263 60.8681 205 61C204.692 61.2149 204.481 61.5414 204.41 61.91C204.363 62.1206 204.333 62.3346 204.32 62.55C204.32 62.77 204.32 63 204.27 63.25C204.27 63.73 204.27 64.25 204.27 64.78C204.381 67.2939 204.763 69.7884 205.41 72.22C205.59 72.91 205.78 73.62 206 74.33C206.212 75.0553 206.469 75.7667 206.77 76.46C207.38 77.9229 208.228 79.2745 209.28 80.46C209.821 81.0389 210.424 81.5554 211.08 82C211.704 82.4347 212.413 82.7314 213.16 82.87C213.869 82.9877 214.596 82.8792 215.24 82.56C215.853 82.249 216.319 81.7106 216.54 81.06C216.755 80.4163 216.843 79.7372 216.8 79.06C216.791 78.7251 216.761 78.3911 216.71 78.06C216.71 77.9 216.71 77.74 216.64 77.58L216.56 77.12C216.345 75.9693 216.034 74.8386 215.63 73.74C215.27 72.74 214.88 71.83 214.53 71.05C214.18 70.27 213.86 69.6 213.6 69.05L213 67.79C212.927 67.6807 212.866 67.5633 212.82 67.44Z" fill="#E0E0E0"/>
<path d="M94.53 305.55L94.64 92.05C94.6559 88.8778 95.9271 85.841 98.1759 83.6035C100.425 81.366 103.468 80.11 106.64 80.11L423.43 80.27C426.602 80.2859 429.639 81.5571 431.876 83.8059C434.114 86.0546 435.37 89.0978 435.37 92.27L435.26 305.77C435.26 307.343 434.949 308.901 434.345 310.353C433.742 311.806 432.857 313.125 431.742 314.234C430.627 315.344 429.303 316.222 427.848 316.818C426.392 317.415 424.833 317.718 423.26 317.71L106.48 317.55C103.306 317.537 100.267 316.267 98.027 314.018C95.7874 311.769 94.53 308.724 94.53 305.55Z" fill="#455A64"/>
<path d="M411.671 309.741L411.787 87.3106L127.267 87.1616L127.151 309.592L411.671 309.741Z" fill="white"/>
<path d="M111.7 207.92C109.899 207.918 108.138 207.382 106.641 206.38C105.145 205.378 103.979 203.954 103.291 202.289C102.603 200.625 102.424 198.793 102.776 197.027C103.129 195.26 103.997 193.638 105.272 192.365C106.546 191.092 108.17 190.225 109.936 189.874C111.703 189.524 113.535 189.705 115.199 190.394C116.863 191.084 118.285 192.252 119.285 193.75C120.286 195.248 120.82 197.009 120.82 198.81C120.82 200.007 120.584 201.193 120.126 202.299C119.667 203.405 118.995 204.409 118.148 205.255C117.301 206.101 116.296 206.772 115.189 207.229C114.083 207.687 112.897 207.921 111.7 207.92Z" fill="#263238"/>
<path d="M425.45 233.497L425.486 164.437C425.487 163.763 424.941 163.216 424.267 163.216L422.947 163.215C422.273 163.215 421.727 163.761 421.726 164.435L421.69 233.495C421.69 234.169 422.236 234.715 422.91 234.715L424.23 234.716C424.903 234.716 425.45 234.17 425.45 233.497Z" fill="#263238"/>
<path d="M148.49 93.79H390.92C394.262 93.79 397.467 95.1175 399.83 97.4804C402.193 99.8434 403.52 103.048 403.52 106.39V266.48H135.89V106.39C135.89 103.048 137.218 99.8434 139.58 97.4804C141.943 95.1175 145.148 93.79 148.49 93.79Z" fill="#E0E0E0"/>
<path d="M383.05 279.13C383.05 282.3 331.5 284.86 267.91 284.86C204.32 284.86 152.76 282.3 152.76 279.13C152.76 275.96 204.31 273.4 267.91 273.4C331.51 273.4 383.05 276 383.05 279.13Z" fill="#EBEBEB"/>
<path d="M381.91 111.92C381.894 111.902 381.874 111.887 381.851 111.877C381.829 111.866 381.805 111.861 381.78 111.86L372 111.8H368.29L368.21 111.24L368.06 110.14C368.055 110.101 368.036 110.065 368.007 110.04C367.977 110.014 367.939 110 367.9 110H365.18C364.97 110 364.83 110 364.83 110.18C364.83 110.36 364.97 110.35 365.18 110.36L367.67 110.41L369.06 121.13C369.065 121.17 369.083 121.207 369.113 121.234C369.142 121.262 369.18 121.278 369.22 121.28H377.22H380.22C380.47 121.28 380.6 121.28 380.6 121.11C380.6 120.94 380.47 120.93 380.22 120.92L369.51 120.78L369.25 118.88L380.51 119.04C380.549 119.04 380.587 119.026 380.617 119C380.646 118.975 380.665 118.939 380.67 118.9L381.51 114.42L381.95 112.01C381.948 111.976 381.934 111.944 381.91 111.92ZM368.33 112.16L381.4 112.33L380.25 118.6H372.25H369.25L368.33 112.16Z" fill="#263238"/>
<path d="M372.2 123.79C372.147 123.496 371.986 123.233 371.75 123.05C371.577 122.907 371.371 122.811 371.15 122.771C370.929 122.73 370.702 122.747 370.49 122.82C370.229 122.914 370.003 123.087 369.843 123.314C369.684 123.541 369.598 123.812 369.598 124.09C369.598 124.368 369.684 124.639 369.843 124.866C370.003 125.093 370.229 125.266 370.49 125.36C370.638 125.41 370.794 125.437 370.95 125.44C371.243 125.437 371.528 125.339 371.76 125.16C371.998 124.972 372.164 124.707 372.23 124.41C372.246 124.307 372.246 124.203 372.23 124.1C372.235 123.996 372.225 123.891 372.2 123.79ZM370.62 124.92C370.453 124.855 370.309 124.741 370.207 124.593C370.106 124.445 370.051 124.27 370.051 124.09C370.051 123.91 370.106 123.735 370.207 123.587C370.309 123.439 370.453 123.325 370.62 123.26C370.717 123.23 370.818 123.214 370.92 123.21C371.115 123.206 371.306 123.27 371.46 123.39C371.624 123.513 371.747 123.685 371.81 123.88V124.07V124.13C371.798 124.194 371.781 124.258 371.76 124.32C371.703 124.519 371.58 124.692 371.41 124.81C371.295 124.886 371.164 124.936 371.028 124.955C370.891 124.974 370.752 124.962 370.62 124.92Z" fill="#263238"/>
<path d="M379.37 123.85C379.313 123.555 379.153 123.289 378.92 123.1C378.768 122.98 378.591 122.894 378.403 122.848C378.214 122.803 378.018 122.799 377.828 122.837C377.637 122.874 377.457 122.953 377.301 123.067C377.144 123.181 377.013 123.328 376.919 123.498C376.824 123.667 376.767 123.855 376.753 124.048C376.738 124.242 376.765 124.436 376.833 124.618C376.9 124.8 377.007 124.965 377.144 125.102C377.282 125.238 377.448 125.344 377.63 125.41C377.774 125.464 377.926 125.491 378.08 125.49C378.376 125.494 378.665 125.397 378.9 125.215C379.134 125.034 379.3 124.778 379.37 124.49C379.381 124.387 379.381 124.283 379.37 124.18C379.388 124.071 379.388 123.959 379.37 123.85ZM377.79 125C377.623 124.935 377.481 124.821 377.38 124.672C377.28 124.524 377.228 124.349 377.23 124.17C377.236 123.991 377.294 123.819 377.397 123.673C377.5 123.527 377.644 123.415 377.81 123.35C377.909 123.332 378.011 123.332 378.11 123.35C378.305 123.346 378.496 123.41 378.65 123.53C378.814 123.653 378.936 123.825 379 124.02C379 124.1 379 124.17 379 124.21V124.27C378.987 124.334 378.97 124.398 378.95 124.46C378.891 124.658 378.768 124.83 378.6 124.95C378.479 125.022 378.342 125.064 378.201 125.073C378.06 125.081 377.919 125.056 377.79 125Z" fill="#263238"/>
<path d="M156.42 128.39L156.77 127.71C157.532 128.371 158.511 128.727 159.52 128.71C161.08 128.71 161.76 128.06 161.76 127.23C161.76 124.95 156.63 126.35 156.63 123.23C156.63 122.01 157.63 120.95 159.7 120.95C160.612 120.939 161.508 121.193 162.28 121.68L161.98 122.39C161.302 121.945 160.511 121.706 159.7 121.7C158.17 121.7 157.5 122.37 157.5 123.21C157.5 125.49 162.63 124.11 162.63 127.15C162.63 128.37 161.63 129.42 159.52 129.42C158.395 129.472 157.29 129.105 156.42 128.39Z" fill="#263238"/>
<path d="M164.47 125.84V121.07H165.35V125.8C165.35 127.8 166.28 128.68 167.9 128.68C169.52 128.68 170.46 127.78 170.46 125.8V121.07H171.32V125.84C171.32 128.23 170.03 129.47 167.9 129.47C165.77 129.47 164.47 128.23 164.47 125.84Z" fill="#263238"/>
<path d="M180.49 123.92C180.49 125.7 179.21 126.77 177.09 126.77H174.85V129.4H174V121.07H177.12C179.21 121.07 180.49 122.14 180.49 123.92ZM179.61 123.92C179.61 122.59 178.73 121.83 177.07 121.83H174.85V126H177.07C178.73 126 179.61 125.23 179.61 123.92Z" fill="#263238"/>
<path d="M188.29 128.64V129.4H182.4V121.07H188.11V121.83H183.28V124.83H187.59V125.58H183.28V128.68L188.29 128.64Z" fill="#263238"/>
<path d="M196.06 129.4L194.15 126.72C193.94 126.72 193.72 126.72 193.48 126.72H191.25V129.36H190.37V121.03H193.48C195.6 121.03 196.89 122.1 196.89 123.88C196.919 124.469 196.746 125.051 196.398 125.528C196.05 126.004 195.55 126.348 194.98 126.5L196.98 129.36L196.06 129.4ZM196.01 123.92C196.01 122.59 195.13 121.83 193.46 121.83H191.25V126H193.46C195.13 126 196 125.23 196 123.92H196.01Z" fill="#263238"/>
<path d="M209.2 124.09C209.2 125.95 207.81 127.09 205.58 127.09H203.9V129.39H202V121.06H205.61C207.81 121.07 209.2 122.22 209.2 124.09ZM207.25 124.09C207.25 123.17 206.65 122.64 205.47 122.64H203.9V125.53H205.47C206.65 125.53 207.25 125 207.25 124.09Z" fill="#263238"/>
<path d="M215.88 129.4L214.27 127.08H212.5V129.4H210.57V121.07H214.18C216.4 121.07 217.79 122.22 217.79 124.07C217.813 124.632 217.661 125.186 217.354 125.658C217.048 126.129 216.603 126.493 216.08 126.7L218 129.4H215.88ZM214.07 122.64H212.5V125.54H214.07C215.25 125.54 215.84 124.99 215.84 124.09C215.84 123.19 215.25 122.64 214.07 122.64Z" fill="#263238"/>
<path d="M219.32 121.07H221.25V129.4H219.32V121.07Z" fill="#263238"/>
<path d="M222.7 125.23C222.742 124.32 223.054 123.443 223.597 122.711C224.14 121.98 224.889 121.427 225.748 121.123C226.607 120.819 227.537 120.778 228.419 121.006C229.301 121.233 230.095 121.719 230.7 122.4L229.46 123.54C229.209 123.228 228.89 122.976 228.529 122.802C228.167 122.629 227.771 122.54 227.37 122.54C227.006 122.518 226.642 122.57 226.299 122.694C225.957 122.818 225.643 123.01 225.377 123.26C225.112 123.51 224.9 123.811 224.756 124.146C224.611 124.48 224.537 124.841 224.537 125.205C224.537 125.569 224.611 125.93 224.756 126.264C224.9 126.599 225.112 126.9 225.377 127.15C225.643 127.4 225.957 127.592 226.299 127.716C226.642 127.84 227.006 127.892 227.37 127.87C227.771 127.873 228.168 127.785 228.531 127.612C228.893 127.438 229.211 127.185 229.46 126.87L230.7 128.01C230.096 128.691 229.302 129.176 228.421 129.404C227.54 129.632 226.611 129.592 225.752 129.289C224.894 128.987 224.145 128.435 223.601 127.705C223.058 126.975 222.744 126.099 222.7 125.19V125.23Z" fill="#263238"/>
<path d="M238.4 127.85V129.4H232V121.07H238.3V122.61H233.92V124.42H237.78V125.92H233.92V127.85H238.4Z" fill="#263238"/>
<path d="M185.92 153.76V156.76H171.75V154.37L179.39 147.12C181.25 145.34 181.58 144.21 181.58 143.12C181.58 141.36 180.37 140.35 178.01 140.35C177.155 140.304 176.302 140.462 175.52 140.809C174.738 141.157 174.049 141.685 173.51 142.35L171.01 140.43C171.893 139.365 173.014 138.522 174.281 137.968C175.549 137.414 176.929 137.165 178.31 137.24C182.49 137.24 185.18 139.36 185.18 142.76C185.18 144.63 184.66 146.33 181.99 148.83L176.86 153.72L185.92 153.76Z" fill="#263238"/>
<path d="M203.25 150.82C203.25 154.64 200.15 157.06 196.25 157.06C191.01 157.06 187.93 153.68 187.93 147.5C187.93 140.91 191.77 137.28 197.35 137.28C199.116 137.219 200.863 137.648 202.4 138.52L201.09 141.21C199.988 140.547 198.715 140.223 197.43 140.28C193.81 140.28 191.53 142.53 191.53 146.89C192.189 146.205 192.99 145.672 193.875 145.327C194.761 144.981 195.711 144.832 196.66 144.89C200.42 144.92 203.25 147.22 203.25 150.82ZM199.79 150.99C199.79 148.99 198.28 147.72 195.95 147.72C193.62 147.72 192.05 149.12 192.05 151.02C192.05 152.92 193.48 154.26 196.05 154.26C198.25 154.26 199.79 153 199.79 151V150.99Z" fill="#263238"/>
<path d="M211.77 147.17C211.77 140.85 215.23 137.28 219.77 137.28C224.31 137.28 227.77 140.85 227.77 147.17C227.77 153.49 224.31 157.06 219.77 157.06C215.23 157.06 211.77 153.49 211.77 147.17ZM224.24 147.17C224.24 142.53 222.42 140.39 219.79 140.39C217.16 140.39 215.37 142.53 215.37 147.17C215.37 151.81 217.18 153.95 219.79 153.95C222.4 153.95 224.24 151.81 224.24 147.17Z" fill="#263238"/>
<path d="M230.25 147.17C230.25 140.85 233.71 137.28 238.25 137.28C242.79 137.28 246.25 140.85 246.25 147.17C246.25 153.49 242.79 157.06 238.25 157.06C233.71 157.06 230.25 153.49 230.25 147.17ZM242.72 147.17C242.72 142.53 240.91 140.39 238.27 140.39C235.63 140.39 233.85 142.53 233.85 147.17C233.85 151.81 235.66 153.95 238.27 153.95C240.88 153.95 242.72 151.81 242.72 147.17Z" fill="#263238"/>
<path d="M248.74 147.17C248.74 140.85 252.2 137.28 256.74 137.28C261.28 137.28 264.74 140.85 264.74 147.17C264.74 153.49 261.28 157.06 256.74 157.06C252.2 157.06 248.74 153.49 248.74 147.17ZM261.2 147.17C261.2 142.53 259.39 140.39 256.76 140.39C254.13 140.39 252.33 142.53 252.33 147.17C252.33 151.81 254.15 153.95 256.76 153.95C259.37 153.95 261.2 151.81 261.2 147.17Z" fill="#263238"/>
<path d="M188.7 167.95H154.44V184.98H188.7V167.95Z" fill="#0010F7"/>
<path d="M166.44 173.66V180H165.44L162 175.71V180H160.83V173.66H161.83L165.32 177.95V173.66H166.44Z" fill="white"/>
<path d="M172.88 179V180H168.13V173.66H172.76V174.66H169.31V176.31H172.37V177.31H169.31V179H172.88Z" fill="white"/>
<path d="M183.36 173.66L181.26 180H180L178.43 175.31L176.85 180H175.59L173.49 173.66H174.72L176.29 178.48L177.93 173.66H179L180.61 178.5L182.23 173.66H183.36Z" fill="white"/>
<path d="M275.256 304.044C279.318 299.983 279.318 293.398 275.256 289.337C271.195 285.275 264.61 285.275 260.549 289.337C256.487 293.398 256.487 299.983 260.549 304.044C264.61 308.106 271.195 308.106 275.256 304.044Z" fill="#EBEBEB"/>
<path d="M268.17 301.23C268.098 301.229 268.028 301.214 267.962 301.185C267.897 301.155 267.838 301.113 267.79 301.06L262.59 294.94C262.547 294.89 262.515 294.832 262.495 294.77C262.474 294.707 262.466 294.642 262.471 294.576C262.477 294.511 262.495 294.447 262.524 294.388C262.554 294.33 262.595 294.278 262.645 294.235C262.695 294.192 262.753 294.16 262.815 294.14C262.878 294.119 262.943 294.111 263.009 294.117C263.074 294.122 263.138 294.14 263.197 294.169C263.255 294.199 263.307 294.24 263.35 294.29L268.15 299.93L272.45 294.31C272.488 294.254 272.538 294.205 272.595 294.169C272.653 294.132 272.717 294.108 272.785 294.097C272.852 294.086 272.921 294.089 272.987 294.106C273.053 294.123 273.115 294.153 273.169 294.195C273.223 294.237 273.268 294.289 273.301 294.349C273.334 294.408 273.355 294.474 273.361 294.542C273.368 294.61 273.361 294.679 273.34 294.744C273.319 294.809 273.285 294.869 273.24 294.92L268.57 301C268.526 301.059 268.469 301.107 268.403 301.14C268.337 301.173 268.264 301.19 268.19 301.19L268.17 301.23Z" fill="#263238"/>
<path d="M463 407.5H497" stroke="black" stroke-width="2" stroke-linecap="round" stroke-linejoin="round"/>
<path d="M463 421.667H497" stroke="black" stroke-width="2" stroke-linecap="round" stroke-linejoin="round"/>
<path d="M463 435.833L487.083 458.5" stroke="black" stroke-width="2" stroke-linecap="round" stroke-linejoin="round"/>
<path d="M463 435.833H471.5" stroke="black" stroke-width="2" stroke-linecap="round" stroke-linejoin="round"/>
<path d="M471.5 435.833C490.39 435.833 490.39 407.5 471.5 407.5" stroke="black" stroke-width="2" stroke-linecap="round" stroke-linejoin="round"/>
<path d="M101.91 437.12L101.27 454.66C101.27 454.66 118.88 461.21 119.08 464.46H85.02L84.9 437.09L101.91 437.12Z" fill="#455A64"/>
<path d="M90.74 453.17C90.4058 453.264 90.1185 453.479 89.9337 453.772C89.749 454.066 89.6799 454.418 89.74 454.76C89.8211 455.098 90.0301 455.391 90.323 455.577C90.6159 455.764 90.9697 455.829 91.31 455.76C91.6544 455.649 91.9464 455.416 92.1306 455.105C92.3149 454.793 92.3787 454.425 92.31 454.07C92.1837 453.734 91.9313 453.46 91.6064 453.307C91.2815 453.154 90.9097 453.133 90.57 453.25" fill="#E0E0E0"/>
<path d="M85 464.43L85.1 461.67L117.71 462.73C117.71 462.73 119.23 463.39 119.06 464.46L85 464.43Z" fill="#263238"/>
<path d="M101.82 454.49C101.82 454.65 100.98 454.73 100.16 455.26C99.34 455.79 98.91 456.49 98.75 456.43C98.59 456.37 98.85 455.43 99.85 454.77C100.85 454.11 101.85 454.33 101.82 454.49Z" fill="white"/>
<path d="M105.39 456C105.39 456.16 104.71 456.44 104.14 457.14C103.57 457.84 103.41 458.59 103.25 458.58C103.09 458.57 102.98 457.63 103.7 456.77C104.42 455.91 105.39 455.81 105.39 456Z" fill="white"/>
<path d="M107.41 460.24C107.26 460.24 107.03 459.45 107.41 458.54C107.79 457.63 108.62 457.26 108.69 457.4C108.76 457.54 108.28 458.03 107.94 458.78C107.6 459.53 107.58 460.23 107.41 460.24Z" fill="white"/>
<path d="M101.52 450.47C101.45 450.62 100.69 450.39 99.75 450.47C98.81 450.55 98.08 450.83 97.99 450.68C97.9 450.53 98.61 449.95 99.72 449.89C100.83 449.83 101.6 450.34 101.52 450.47Z" fill="white"/>
<path d="M62.83 438.72L61.48 459.92L65.24 477C65.3035 477.292 65.3064 477.593 65.2485 477.886C65.1906 478.179 65.0732 478.457 64.9035 478.703C64.7338 478.948 64.5154 479.157 64.262 479.314C64.0085 479.472 63.7253 479.576 63.43 479.62C63.0883 479.671 62.7395 479.639 62.4125 479.528C62.0855 479.416 61.7898 479.229 61.55 478.98C58.44 475.74 47.05 463.77 47.24 462.23C47.45 460.44 47.18 439.78 47.18 439.78L62.83 438.72Z" fill="#455A64"/>
<path d="M63.43 479.61L47.3 460.78V461.68C47.2685 462.459 47.5129 463.224 47.99 463.84C49.27 465.48 52.91 469.92 61.52 478.97C61.7725 479.237 62.0882 479.435 62.4379 479.547C62.7875 479.659 63.1597 479.68 63.52 479.61H63.43Z" fill="#263238"/>
<g opacity="0.6">
<path opacity="0.6" d="M51.93 454.12C52.1837 454.322 52.3538 454.61 52.4073 454.929C52.4609 455.249 52.3941 455.577 52.22 455.85C52.0278 456.11 51.7432 456.286 51.4249 456.342C51.1067 456.397 50.7792 456.329 50.51 456.15C50.2417 455.937 50.0623 455.631 50.0068 455.293C49.9514 454.955 50.0238 454.608 50.21 454.32C50.4371 454.076 50.7487 453.928 51.0813 453.906C51.4138 453.883 51.7424 453.989 52 454.2" fill="white"/>
</g>
<path d="M59 470.14C59.5401 469.499 60.1945 468.963 60.93 468.56C61.72 468.286 62.5546 468.164 63.39 468.2C63.39 468.15 63.15 467.97 62.66 467.88C62.0094 467.783 61.3447 467.873 60.743 468.138C60.1412 468.404 59.627 468.834 59.26 469.38C59 469.81 58.91 470.12 59 470.14Z" fill="white"/>
<path d="M60.36 473C60.9854 472.691 61.6262 472.414 62.28 472.17C62.9695 472.07 63.6638 472.007 64.36 471.98C64.04 471.766 63.6743 471.63 63.2921 471.583C62.91 471.536 62.5223 471.58 62.16 471.71C60.9 472.07 60.25 473 60.36 473Z" fill="white"/>
<path d="M56.3 466.38C57.22 465.816 58.1791 465.318 59.17 464.89C60.2139 464.613 61.2768 464.412 62.35 464.29C61.2472 464.024 60.0915 464.08 59.0194 464.45C57.9473 464.821 57.0036 465.49 56.3 466.38Z" fill="white"/>
<path d="M56.17 459.9C56.23 460.03 57.42 459.59 58.95 459.6C60.48 459.61 61.67 460.02 61.72 459.89C60.9108 459.319 59.927 459.05 58.94 459.13C57.9553 459.058 56.9762 459.33 56.17 459.9Z" fill="white"/>
<path d="M56.41 453.67C57.3485 453.413 58.317 453.282 59.29 453.28C60.2525 453.427 61.1909 453.703 62.08 454.1C62.08 454.1 61.89 453.78 61.41 453.48C60.7772 453.095 60.0622 452.865 59.3234 452.809C58.5847 452.754 57.8433 452.874 57.16 453.16C56.64 453.39 56.39 453.63 56.41 453.67Z" fill="white"/>
<path d="M59.3 452.09C59.3835 451.832 59.4041 451.558 59.36 451.29C59.3244 450.55 59.1372 449.825 58.81 449.16C58.6202 448.654 58.2687 448.225 57.81 447.94C57.6484 447.858 57.4652 447.828 57.2859 447.855C57.1066 447.882 56.9402 447.964 56.81 448.09C56.5605 448.363 56.4245 448.72 56.43 449.09C56.4612 449.796 56.7332 450.47 57.2009 450.999C57.6685 451.529 58.3035 451.882 59 452C59.6999 452.1 60.4139 451.99 61.0512 451.684C61.6886 451.378 62.2207 450.889 62.58 450.28C62.6643 450.129 62.7168 449.962 62.734 449.79C62.7512 449.618 62.7328 449.445 62.68 449.28C62.6034 449.116 62.4772 448.981 62.3192 448.893C62.1612 448.805 61.9795 448.769 61.8 448.79C61.2737 448.887 60.7813 449.118 60.37 449.46C59.7854 449.884 59.278 450.405 58.87 451C58.7024 451.213 58.5799 451.458 58.51 451.72C59.0962 450.957 59.7901 450.283 60.57 449.72C60.9377 449.435 61.3708 449.246 61.83 449.17C61.9272 449.156 62.0263 449.174 62.1127 449.221C62.1991 449.268 62.2682 449.341 62.31 449.43C62.3393 449.543 62.3446 449.661 62.3257 449.777C62.3067 449.892 62.2639 450.002 62.2 450.1C61.8776 450.617 61.4125 451.031 60.8607 451.29C60.3089 451.549 59.6939 451.643 59.09 451.56C58.492 451.461 57.9454 451.162 57.5401 450.711C57.1348 450.26 56.895 449.685 56.86 449.08C56.8551 448.835 56.9405 448.596 57.1 448.41C57.1693 448.341 57.2587 448.294 57.3555 448.278C57.4524 448.262 57.5518 448.277 57.64 448.32C58.0296 448.554 58.337 448.904 58.52 449.32C58.9436 450.189 59.2078 451.127 59.3 452.09Z" fill="white"/>
<path d="M116.83 288.85C118.648 296.085 119.379 303.55 119 311C118.75 315.72 103.59 452.1 103.59 452.1L84.3 450.37L87.63 322.85L86.82 323.58C86.82 323.58 75.33 377.22 74.57 385.7C73.89 393.33 64.71 454.57 64.71 454.57L46 453.67L50.24 376.25L55.91 306L58.18 285.53L116.83 288.85Z" fill="#263238"/>
<path d="M83.91 311.85C84.1931 312.046 84.4986 312.207 84.82 312.33C85.6678 312.745 86.5701 313.038 87.5 313.2C88.1611 313.322 88.8389 313.322 89.5 313.2C90.2482 313.064 90.942 312.717 91.5 312.2C92.0869 311.576 92.5035 310.811 92.71 309.98C92.94 309.14 93.06 308.27 93.22 307.38C93.82 303.83 94.22 300.59 94.43 298.24C94.54 297.07 94.61 296.12 94.64 295.46C94.6767 295.128 94.6767 294.792 94.64 294.46C94.5462 294.786 94.4859 295.121 94.46 295.46C94.37 296.21 94.25 297.13 94.11 298.23C93.81 300.56 93.37 303.79 92.77 307.33C92.47 309.08 92.27 310.86 91.21 311.92C90.7122 312.359 90.1224 312.681 89.484 312.863C88.8455 313.045 88.1744 313.081 87.52 312.97C86.6116 312.84 85.7219 312.601 84.87 312.26C84.5661 312.088 84.2442 311.951 83.91 311.85Z" fill="#455A64"/>
<path d="M90 295.08C90 295.08 89.86 294.98 89.56 294.96C89.125 294.966 88.7037 295.113 88.36 295.38C88.0972 295.575 87.8829 295.828 87.7338 296.12C87.5846 296.411 87.5046 296.733 87.5 297.06C87.5363 297.466 87.6891 297.854 87.9401 298.175C88.1911 298.497 88.5296 298.74 88.9149 298.874C89.3003 299.008 89.7161 299.028 90.1126 298.931C90.5091 298.835 90.8693 298.626 91.15 298.33C91.3489 298.07 91.4857 297.769 91.5499 297.448C91.614 297.127 91.6038 296.796 91.52 296.48C91.4203 296.057 91.1807 295.68 90.84 295.41C90.6 295.23 90.43 295.21 90.42 295.23C90.814 295.576 91.0873 296.038 91.2 296.55C91.2516 296.813 91.2452 297.085 91.1813 297.346C91.1174 297.607 90.9975 297.85 90.83 298.06C90.6071 298.294 90.3191 298.455 90.0035 298.522C89.6878 298.59 89.3591 298.561 89.06 298.44C88.7504 298.35 88.4756 298.168 88.272 297.918C88.0684 297.667 87.9456 297.361 87.92 297.04C87.9177 296.772 87.9747 296.506 88.0871 296.262C88.1995 296.018 88.3644 295.803 88.57 295.63C88.9756 295.299 89.4768 295.106 90 295.08Z" fill="#455A64"/>
<path d="M56.17 304.71C56.4107 304.777 56.6602 304.807 56.91 304.8C57.5758 304.849 58.2442 304.849 58.91 304.8C61.1327 304.626 63.3084 304.068 65.34 303.15C67.3734 302.239 69.2368 300.987 70.85 299.45C71.336 298.987 71.7872 298.489 72.2 297.96C72.3728 297.778 72.5146 297.568 72.62 297.34C72.56 297.29 71.89 298.1 70.62 299.21C67.3306 302.121 63.2316 303.96 58.87 304.48C57.22 304.66 56.18 304.63 56.17 304.71Z" fill="#455A64"/>
<path d="M108.17 295.06C108.454 295.831 108.844 296.558 109.33 297.22C111.515 300.551 114.481 303.298 117.97 305.22C118.667 305.655 119.421 305.992 120.21 306.22C119.542 305.754 118.847 305.327 118.13 304.94C116.467 303.912 114.906 302.727 113.47 301.4C112.044 300.063 110.745 298.597 109.59 297.02C109.152 296.342 108.678 295.688 108.17 295.06Z" fill="#455A64"/>
<path d="M104.13 151.39C103.483 147.195 101.28 143.397 97.9589 140.753C94.6382 138.108 90.4436 136.811 86.21 137.12L85.34 137.18C75.97 138.42 71.79 147.06 73.28 156.39L76.54 189.49L76.7 196.34L99 198.34L98.52 183.89C98.52 183.89 107.46 181.83 106.92 172.78C106.65 168.43 105.38 159.48 104.13 151.39Z" fill="#FFBE9D"/>
<path d="M98.6 183.89C94.4009 184.199 90.2014 183.297 86.5 181.29C86.5 181.29 89.76 187.59 98.72 186.12L98.6 183.89Z" fill="#EB996E"/>
<path d="M102.82 159.78C102.848 160.116 102.743 160.45 102.528 160.709C102.313 160.969 102.005 161.135 101.67 161.17C101.507 161.195 101.34 161.188 101.18 161.148C101.02 161.109 100.869 161.037 100.737 160.938C100.605 160.84 100.494 160.716 100.41 160.573C100.326 160.431 100.272 160.274 100.25 160.11C100.222 159.773 100.326 159.438 100.541 159.177C100.756 158.915 101.064 158.748 101.4 158.71C101.564 158.686 101.73 158.695 101.891 158.736C102.051 158.777 102.201 158.849 102.333 158.948C102.465 159.048 102.577 159.173 102.66 159.315C102.744 159.458 102.798 159.616 102.82 159.78Z" fill="#263238"/>
<path d="M102.5 156C102.36 156.18 101.33 155.53 99.94 155.63C98.55 155.73 97.58 156.51 97.42 156.35C97.26 156.19 97.48 155.96 97.9 155.61C98.4688 155.148 99.1682 154.875 99.9 154.83C100.623 154.77 101.345 154.945 101.96 155.33C102.41 155.58 102.58 155.87 102.5 156Z" fill="#263238"/>
<path d="M89.71 161.33C89.738 161.666 89.6333 162 89.4184 162.259C89.2034 162.519 88.8953 162.685 88.56 162.72C88.3969 162.744 88.2307 162.735 88.0711 162.694C87.9115 162.653 87.7617 162.581 87.6304 162.481C87.4991 162.381 87.389 162.257 87.3065 162.114C87.224 161.971 87.1708 161.813 87.15 161.65C87.122 161.314 87.2266 160.98 87.4416 160.721C87.6565 160.461 87.9646 160.295 88.3 160.26C88.4632 160.235 88.6299 160.242 88.79 160.283C88.9502 160.323 89.1005 160.396 89.2321 160.496C89.3637 160.596 89.4739 160.721 89.556 160.864C89.6381 161.008 89.6904 161.166 89.71 161.33Z" fill="#263238"/>
<path d="M88.87 157.2C88.72 157.38 87.69 156.73 86.3 156.84C84.91 156.95 83.95 157.71 83.78 157.55C83.61 157.39 83.84 157.17 84.26 156.81C84.8325 156.354 85.5298 156.082 86.26 156.03C86.9622 155.987 87.6606 156.162 88.26 156.53C88.77 156.83 88.94 157.12 88.87 157.2Z" fill="#263238"/>
<path d="M94.66 167.14C95.3764 166.857 96.1257 166.666 96.89 166.57C97.24 166.51 97.57 166.41 97.61 166.16C97.6098 165.803 97.5018 165.454 97.3 165.16C96.9 164.33 96.49 163.45 96.05 162.53C94.32 158.8 93.05 155.71 93.18 155.64C93.31 155.57 94.86 158.55 96.6 162.29L97.8 164.93C98.061 165.34 98.1641 165.83 98.09 166.31C98.0465 166.439 97.9745 166.556 97.8792 166.653C97.784 166.75 97.668 166.824 97.54 166.87C97.3665 166.937 97.1849 166.981 97 167C96.2295 167.149 95.4427 167.196 94.66 167.14Z" fill="#263238"/>
<path d="M90.64 168.4C90.87 168.4 90.98 169.88 92.35 170.85C93.72 171.82 95.35 171.55 95.35 171.75C95.35 171.95 95.01 172.07 94.35 172.14C93.47 172.217 92.5912 171.98 91.87 171.47C91.174 170.982 90.6938 170.244 90.53 169.41C90.4 168.78 90.54 168.4 90.64 168.4Z" fill="#263238"/>
<path d="M88.83 151.73C88.72 152.12 87.32 152.04 85.71 152.36C84.1 152.68 82.81 153.21 82.56 152.89C82.46 152.74 82.66 152.36 83.16 151.96C83.8339 151.451 84.6185 151.108 85.45 150.96C86.2768 150.797 87.1308 150.834 87.94 151.07C88.55 151.28 88.88 151.55 88.83 151.73Z" fill="#263238"/>
<path d="M101.7 152C101.48 152.33 100.5 152.07 99.35 152.14C98.2 152.21 97.24 152.51 96.99 152.14C96.88 151.99 96.99 151.66 97.41 151.33C97.9558 150.927 98.6117 150.7 99.29 150.68C99.9667 150.64 100.639 150.815 101.21 151.18C101.64 151.49 101.8 151.81 101.7 152Z" fill="#263238"/>
<path d="M75.37 165.08C75.3346 164.749 75.2326 164.429 75.07 164.139C74.9074 163.849 74.6877 163.595 74.4241 163.392C74.1605 163.189 73.8585 163.042 73.5364 162.959C73.2143 162.876 72.8787 162.859 72.55 162.91C70.88 163.19 69.07 164.29 69.44 167.76C70.09 173.93 76.14 172.01 76.13 171.83C76.12 171.65 75.67 167.66 75.37 165.08Z" fill="#FFBE9D"/>
<path d="M74.55 169.65C74.55 169.65 74.45 169.74 74.28 169.84C74.0353 169.972 73.7498 170.008 73.48 169.94C73.0553 169.728 72.6944 169.407 72.4344 169.01C72.1743 168.613 72.0244 168.154 72 167.68C71.9327 167.153 71.9805 166.617 72.14 166.11C72.1785 165.91 72.2651 165.723 72.3923 165.565C72.5195 165.406 72.6835 165.281 72.87 165.2C72.9896 165.156 73.1208 165.155 73.2412 165.197C73.3616 165.239 73.4637 165.321 73.53 165.43C73.63 165.6 73.6 165.72 73.64 165.73C73.68 165.74 73.76 165.61 73.64 165.36C73.5932 165.21 73.4937 165.082 73.36 165C73.1757 164.893 72.9573 164.861 72.75 164.91C72.5062 164.989 72.2865 165.128 72.1116 165.316C71.9366 165.503 71.8122 165.731 71.75 165.98C71.5382 166.541 71.4728 167.147 71.56 167.74C71.5859 168.292 71.7744 168.823 72.1018 169.268C72.4292 169.713 72.8809 170.051 73.4 170.24C73.5761 170.277 73.7586 170.272 73.9324 170.225C74.1062 170.178 74.2665 170.091 74.4 169.97C74.55 169.8 74.57 169.66 74.55 169.65Z" fill="#EB996E"/>
<path d="M128.78 218C131.65 226.36 132.61 226.5 135.22 250.64C135.72 255.33 134.46 262.46 130.3 264.64C126.14 266.82 118.76 264.42 116.3 260.41L113.53 242.62L128.78 218Z" fill="#FFBE9D"/>
<path d="M118.54 253.52C118.999 252.298 119.52 251.1 120.1 249.93C120.777 248.816 121.511 247.738 122.3 246.7C121.972 246.915 121.685 247.186 121.45 247.5C120.83 248.201 120.29 248.969 119.84 249.79C119.39 250.612 119.031 251.48 118.77 252.38C118.637 252.747 118.56 253.131 118.54 253.52Z" fill="#EB996E"/>
<path d="M58.16 263.34L58.27 243.47L58.2 241.52L38 236.81C38 236.81 42 223.81 45.59 209.75C47.69 201.65 54.67 197.58 56.35 196.75L56.72 196.58L76.49 189C80.41 193.18 85.8 195.84 91.3 194.23C94.285 193.41 96.9497 191.701 98.94 189.33L112.37 193.27C116.14 194.576 119.328 197.172 121.37 200.6C124.11 205.44 132.85 227.6 133.01 228.14L116.8 229.6C116.8 229.6 119.68 282.15 118.66 291.54C118.66 291.54 114.73 294.26 104.8 294.73C84.67 295.68 54.7 294.25 54.7 294.25C55.17 291.25 55.7 286.15 55.94 283.59L58.16 263.34Z" fill="#0010F7"/>
<path d="M116.29 210C116.21 210 116.64 222.53 117.29 238C117.94 253.47 118.46 266 118.54 266C118.62 266 118.2 253.46 117.54 238C116.88 222.54 116.38 210 116.29 210Z" fill="#263238"/>
<path d="M134.72 220.49L128.46 246.55C128.11 247.99 126.83 249.01 124.75 249.55L89.24 249.67C88.3895 249.323 87.676 248.706 87.2084 247.916C86.7408 247.125 86.5447 246.203 86.65 245.29L91.3 220.4C91.439 219.674 91.8223 219.017 92.3862 218.538C92.9501 218.06 93.6607 217.789 94.4 217.77L131.83 216.91C132.274 216.901 132.714 216.994 133.117 217.181C133.519 217.369 133.874 217.646 134.153 217.992C134.432 218.337 134.628 218.742 134.726 219.175C134.824 219.608 134.822 220.058 134.72 220.49Z" fill="#263238"/>
<path d="M137.06 225.71C137.368 225.304 137.531 224.806 137.522 224.296C137.513 223.787 137.333 223.295 137.01 222.9C136.676 222.514 136.261 222.206 135.794 221.998C135.327 221.791 134.821 221.689 134.31 221.7C133.291 221.727 132.288 221.958 131.36 222.38C130.197 222.861 129.082 223.45 128.03 224.14C127.635 224.343 127.286 224.625 127.006 224.97C126.725 225.314 126.519 225.712 126.4 226.14C126.27 227.02 127.25 227.99 128.01 227.54C127.473 227.782 127.002 228.147 126.633 228.606C126.265 229.064 126.01 229.604 125.89 230.18C125.76 231.29 126.36 231.87 127.44 232.18C127.037 232.35 126.716 232.672 126.546 233.075C126.376 233.478 126.37 233.932 126.53 234.34C126.79 234.732 127.185 235.016 127.64 235.138C128.095 235.259 128.579 235.21 129 235C129.824 234.577 130.528 233.955 131.05 233.19C130.523 234.457 130.424 235.862 130.77 237.19C133.12 236.33 135.43 233.71 134.77 231.19C135.347 230.721 135.754 230.075 135.926 229.352C136.097 228.628 136.025 227.868 135.72 227.19C136.259 226.938 136.719 226.544 137.052 226.051C137.385 225.558 137.578 224.984 137.61 224.39" fill="#FFBE9D"/>
<path d="M130.62 237.2C130.902 236.947 131.21 236.726 131.54 236.54C132.29 236.043 132.964 235.44 133.54 234.75C134.092 234.048 134.438 233.207 134.54 232.32C134.544 231.942 134.567 231.565 134.61 231.19C134.751 231.556 134.803 231.95 134.76 232.34C134.713 233.291 134.362 234.202 133.76 234.94C133.163 235.664 132.433 236.268 131.61 236.72C131.31 236.936 130.975 237.099 130.62 237.2Z" fill="#EB996E"/>
<path d="M127.47 232.17C127.821 231.926 128.155 231.659 128.47 231.37C129.243 230.697 130.155 230.202 131.14 229.92C131.68 229.801 132.24 229.801 132.78 229.92C133.221 230.017 133.635 230.211 133.99 230.49C134.314 230.776 134.588 231.114 134.8 231.49C134.793 231.371 134.758 231.254 134.7 231.15C134.558 230.856 134.357 230.594 134.11 230.38C133.745 230.062 133.31 229.836 132.84 229.72C132.262 229.58 131.658 229.58 131.08 229.72C130.054 230.005 129.116 230.541 128.35 231.28C128.016 231.534 127.72 231.834 127.47 232.17Z" fill="#EB996E"/>
<path d="M127.62 227.65C128.053 227.528 128.467 227.346 128.85 227.11C129.277 226.88 129.718 226.676 130.17 226.5C130.719 226.293 131.284 226.133 131.86 226.02C132.428 225.896 133.014 225.876 133.59 225.96C134.054 226.039 134.495 226.22 134.88 226.49C135.237 226.755 135.531 227.097 135.74 227.49C135.73 227.363 135.693 227.24 135.63 227.13C135.477 226.829 135.258 226.566 134.99 226.36C134.595 226.046 134.127 225.836 133.63 225.75C133.029 225.636 132.411 225.636 131.81 225.75C131.219 225.871 130.64 226.045 130.08 226.27C129.627 226.46 129.189 226.684 128.77 226.94C128.371 227.151 127.987 227.388 127.62 227.65Z" fill="#EB996E"/>
<path d="M70.43 158.8C70.94 160.56 70.76 163.5 72.34 163.1C75.48 162.31 74.72 168.74 76.23 168.1C77.74 167.46 79.03 165.65 79.12 161.69C79.24 156.69 77.22 153.05 79.19 147.3C79.8202 146.153 80.7357 145.187 81.8481 144.497C82.9604 143.807 84.2321 143.415 85.54 143.36C86.8591 143.331 88.1636 143.64 89.3294 144.258C90.4952 144.876 91.4834 145.782 92.2 146.89C92.48 145.13 93.34 142.49 94.9 141.65C95.68 141.214 96.572 141.021 97.4624 141.094C98.3529 141.167 99.2014 141.503 99.9 142.06C100.572 142.645 101.01 143.453 101.131 144.336C101.253 145.219 101.05 146.116 100.56 146.86C100.925 146.974 101.318 146.966 101.678 146.838C102.039 146.71 102.348 146.469 102.56 146.15C102.59 146.558 102.537 146.969 102.403 147.356C102.269 147.743 102.057 148.098 101.78 148.4C102.424 148.235 102.988 147.844 103.37 147.3C103.21 148.02 103.06 148.75 102.9 149.47C105.54 149.54 108.13 146.98 108.9 144.7C110.01 141.25 109.15 137.77 107.22 134.7C106.274 133.151 104.954 131.863 103.382 130.955C101.81 130.046 100.035 129.546 98.22 129.5C96.5149 129.423 94.8272 129.871 93.3843 130.783C91.9414 131.695 90.8126 133.027 90.15 134.6C87.8 132.93 83.03 132.36 80.4 133.6C79.09 134.213 77.9591 135.152 77.1152 136.327C76.2714 137.501 75.7428 138.873 75.58 140.31C74.7324 140.021 73.8235 139.962 72.9454 140.137C72.0674 140.313 71.2513 140.717 70.58 141.31C70.47 141.41 70.35 141.5 70.25 141.6C69.3186 142.483 68.6284 143.59 68.2451 144.815C67.8618 146.04 67.7981 147.343 68.06 148.6C68.25 149.6 68.6 150.6 68.8 151.45C69.32 153.73 70.43 158.8 70.43 158.8Z" fill="#263238"/>
<path d="M102.92 146C102.997 145.952 103.067 145.895 103.13 145.83C103.322 145.658 103.496 145.467 103.65 145.26C104.214 144.489 104.559 143.581 104.65 142.63C104.739 141.922 104.675 141.203 104.463 140.522C104.251 139.841 103.895 139.212 103.42 138.68C102.836 138.022 102.102 137.516 101.28 137.204C100.458 136.893 99.5728 136.785 98.7 136.89C97.8027 137.033 96.9486 137.375 96.2 137.89C95.5032 138.351 94.8824 138.918 94.36 139.57C93.4628 140.664 92.8144 141.94 92.46 143.31C92.2215 144.227 92.1204 145.174 92.16 146.12C92.1703 146.378 92.1937 146.635 92.23 146.89C92.2383 146.979 92.2585 147.066 92.29 147.15C92.1944 145.875 92.3161 144.594 92.65 143.36C93.0205 142.03 93.668 140.793 94.55 139.73C95.5859 138.394 97.0775 137.486 98.74 137.18C99.5675 137.077 100.408 137.175 101.189 137.466C101.971 137.757 102.671 138.231 103.23 138.85C103.687 139.358 104.032 139.955 104.244 140.605C104.456 141.254 104.53 141.941 104.46 142.62C104.37 143.547 104.05 144.437 103.53 145.21C103.19 145.74 102.9 146 102.92 146Z" fill="#455A64"/>
<path d="M104.13 148.76C104.201 148.665 104.264 148.565 104.32 148.46C104.43 148.25 104.6 147.96 104.8 147.57C105.393 146.468 105.882 145.313 106.26 144.12C106.499 143.287 106.634 142.427 106.66 141.56C106.684 140.557 106.504 139.561 106.13 138.63C105.681 137.598 104.94 136.719 104 136.1C102.992 135.451 101.836 135.069 100.64 134.99C99.4502 134.929 98.2609 135.12 97.15 135.55C96.1209 135.948 95.1569 136.497 94.29 137.18C92.7784 138.306 91.6787 139.898 91.16 141.71C90.8414 142.937 90.9077 144.232 91.35 145.42C91.4697 145.739 91.624 146.044 91.81 146.33C91.94 146.52 92.02 146.62 92.03 146.61C91.7963 146.22 91.6021 145.808 91.45 145.38C91.0559 144.21 91.0211 142.95 91.35 141.76C91.8774 140.003 92.9619 138.466 94.44 137.38C96.179 135.956 98.3732 135.207 100.62 135.27C101.77 135.337 102.884 135.702 103.85 136.33C104.734 136.916 105.429 137.747 105.85 138.72C106.228 139.618 106.412 140.586 106.39 141.56C106.38 142.409 106.259 143.253 106.03 144.07C105.679 145.258 105.224 146.412 104.67 147.52L104.23 148.43C104.184 148.536 104.15 148.646 104.13 148.76Z" fill="#455A64"/>
<path d="M72.61 154.8C72.61 154.8 72.04 154.34 71.29 153.44C70.3021 152.285 69.6226 150.9 69.3148 149.411C69.0071 147.923 69.0811 146.382 69.53 144.93C69.86 143.82 70.25 143.19 70.2 143.16C70.0878 143.292 69.9906 143.436 69.91 143.59C69.6861 144.001 69.4955 144.429 69.34 144.87C68.841 146.351 68.741 147.938 69.05 149.47C69.3726 150.999 70.0975 152.415 71.15 153.57C71.4472 153.938 71.7824 154.273 72.15 154.57C72.291 154.669 72.446 154.747 72.61 154.8Z" fill="#455A64"/>
<path d="M78.24 154.62C78.24 154.62 77.93 154.49 77.44 154.15C76.7569 153.683 76.2169 153.036 75.88 152.28L75.62 151.68L75.68 152.33C75.76 153.2 75.85 154.2 75.95 155.28L76.15 155.16C75.2656 154.559 74.5097 153.787 73.926 152.891C73.3423 151.995 72.9425 150.992 72.75 149.94C72.5782 148.978 72.5782 147.992 72.75 147.03C72.9352 146.148 73.2273 145.291 73.62 144.48C73.5725 144.524 73.5321 144.574 73.5 144.63C73.4011 144.781 73.311 144.938 73.23 145.1C72.9223 145.7 72.697 146.339 72.56 147C72.3464 147.986 72.3193 149.004 72.48 150C72.6685 151.09 73.0759 152.13 73.6774 153.058C74.2789 153.986 75.0622 154.783 75.98 155.4L76.21 155.55V155.28C76.09 154.2 75.98 153.2 75.89 152.33L75.69 152.38C76.0516 153.165 76.6403 153.823 77.38 154.27C77.577 154.392 77.7845 154.495 78 154.58C78.0769 154.608 78.1582 154.621 78.24 154.62Z" fill="#455A64"/>
<path d="M80 141.62C80.3603 140.939 80.8454 140.332 81.43 139.83C82.0827 139.33 82.8426 138.987 83.65 138.83C84.6557 138.641 85.6942 138.734 86.65 139.1C87.5999 139.458 88.4528 140.033 89.14 140.78C89.6956 141.4 90.1481 142.106 90.48 142.87C90.7608 143.588 90.9848 144.327 91.15 145.08C91.1852 144.871 91.1852 144.659 91.15 144.45C91.0594 143.882 90.9085 143.326 90.7 142.79C90.3818 141.992 89.9285 141.254 89.36 140.61C88.6553 139.821 87.7702 139.213 86.78 138.84C85.7843 138.465 84.704 138.375 83.66 138.58C82.8143 138.765 82.0277 139.157 81.37 139.72C80.8923 140.063 80.4877 140.499 80.18 141C80.1062 141.138 80.0427 141.282 79.99 141.43C80 141.56 79.94 141.61 80 141.62Z" fill="#455A64"/>
<path d="M81.4 136.9C81.941 136.622 82.5111 136.404 83.1 136.25C84.5395 135.934 86.0447 136.147 87.34 136.85C88.6212 137.577 89.6635 138.661 90.34 139.97C90.88 140.97 91.05 141.66 91.1 141.64C91.0963 141.472 91.0624 141.306 91 141.15C90.881 140.711 90.7168 140.285 90.51 139.88C89.8697 138.508 88.8222 137.366 87.51 136.61C86.1589 135.875 84.5799 135.679 83.09 136.06C82.6448 136.174 82.2198 136.357 81.83 136.6C81.6693 136.672 81.5234 136.774 81.4 136.9Z" fill="#455A64"/>
<path d="M60.38 213.54C60.52 213.54 60.12 224.67 59.47 238.38C58.82 252.09 58.18 263.2 58 263.19C57.82 263.18 58.26 252.07 58.91 238.35C59.56 224.63 60.24 213.53 60.38 213.54Z" fill="#263238"/>
<path d="M37.94 246.27C38.59 241.34 39.14 236.98 39.14 236.98L55.27 240.72L54.58 243.32L67 230.66L69 230.83L75.27 237.35C75.27 237.35 69.8 248.91 66.62 253.41C62.48 259.26 55.97 268.18 47.06 267.41C38.84 266.74 36.76 255.12 37.94 246.27Z" fill="#FFBE9D"/>
<path d="M46.67 249.22C47.6647 247.956 48.8647 246.867 50.22 246C51.4783 244.986 52.9027 244.198 54.43 243.67C54.5 243.8 52.65 244.88 50.52 246.42C48.39 247.96 46.78 249.33 46.67 249.22Z" fill="#EB996E"/>
<path d="M88.81 214.13L83.27 211.3L76.08 213.58L72.52 216.87L67 230.66L62.62 236.21L70.36 246.29L75.25 237.35C75.25 237.35 79.41 235.54 81.07 232.91C82.73 230.28 83.48 228.91 83.48 228.91C83.48 228.91 85.89 227.75 86.33 226.65C86.5926 226.015 86.735 225.337 86.75 224.65L85.54 222.88C85.6188 222.107 85.4911 221.327 85.17 220.62C84.9317 220.279 84.6025 220.013 84.22 219.85C84.22 219.85 84.57 218.36 84.01 217.85C82.9593 217.229 81.8466 216.72 80.69 216.33L83.11 214.96C83.11 214.96 88.51 216.58 88.81 214.13Z" fill="#FFBE9D"/>
<path d="M80.58 219.13C80.58 219.2 81.43 219.23 82.45 219.44C83.47 219.65 84.25 219.98 84.28 219.91C83.7466 219.546 83.1383 219.307 82.5 219.21C81.8738 219.042 81.218 219.014 80.58 219.13Z" fill="#EB996E"/>
<path d="M82.25 222.23C82.7794 222.325 83.3135 222.392 83.85 222.43C84.3746 222.552 84.9054 222.645 85.44 222.71C84.4616 222.194 83.337 222.025 82.25 222.23Z" fill="#EB996E"/>
<path d="M84.59 227.08C84.66 227.08 84.7 226.76 84.7 226.37C84.7 225.98 84.63 225.67 84.56 225.67C84.49 225.67 84.45 225.99 84.46 226.38C84.47 226.77 84.53 227.08 84.59 227.08Z" fill="#EB996E"/>
<path d="M83.53 228.57C83.578 228.105 83.7565 227.663 84.0449 227.295C84.3333 226.927 84.7199 226.648 85.16 226.49C85.16 226.49 84.98 226.44 84.72 226.49C84.3795 226.609 84.0808 226.825 83.86 227.11C83.6325 227.397 83.4935 227.745 83.46 228.11C83.44 228.41 83.5 228.58 83.53 228.57Z" fill="#EB996E"/>
<path d="M79.2 224.15C79.26 224.15 79.5 223.56 80.2 223.15C80.6154 222.96 81.0635 222.851 81.52 222.83C81.52 222.83 81.37 222.72 81.1 222.7C80.7496 222.686 80.4025 222.773 80.1 222.95C79.7886 223.118 79.5318 223.371 79.36 223.68C79.19 224 79.17 224.14 79.2 224.15Z" fill="#EB996E"/>
<path d="M76.67 221.08C76.74 221.08 76.95 220.54 77.56 220.16C77.94 219.962 78.348 219.824 78.77 219.75C78.77 219.75 78.62 219.66 78.37 219.67C78.0383 219.679 77.7151 219.776 77.4338 219.952C77.1524 220.128 76.9232 220.376 76.77 220.67C76.66 220.92 76.65 221.08 76.67 221.08Z" fill="#EB996E"/>
<path d="M75 219.58C75 219.58 75 219.39 75.06 219.11C75.1007 218.74 75.2388 218.388 75.4602 218.09C75.6816 217.791 75.9783 217.556 76.32 217.41C76.4714 217.358 76.6185 217.295 76.76 217.22C76.76 217.22 76.56 217.17 76.26 217.22C75.8618 217.343 75.5122 217.588 75.26 217.92C75.0175 218.255 74.8847 218.657 74.88 219.07C74.88 219.41 75 219.59 75 219.58Z" fill="#EB996E"/>
<path d="M77.33 216C77.33 216.08 78.49 216.1 79.89 216.31C81.29 216.52 82.34 217.02 82.37 216.95C81.6324 216.473 80.7933 216.175 79.92 216.08C79.3149 215.982 78.7028 215.936 78.09 215.94C77.8351 215.918 77.5782 215.938 77.33 216Z" fill="#EB996E"/>
<path d="M468.53 464.81C468.53 464.96 372.47 465.07 254.01 465.07C135.55 465.07 39.47 465 39.47 464.81C39.47 464.62 135.47 464.55 254.01 464.55C372.55 464.55 468.53 464.67 468.53 464.81Z" fill="#263238"/>
<path d="M382.27 378.29C378.287 375.795 373.785 374.245 369.11 373.76C366.95 373.54 364.6 373.6 362.88 374.9C362.68 375.014 362.515 375.181 362.402 375.381C362.289 375.582 362.233 375.81 362.24 376.04C362.342 376.365 362.559 376.642 362.85 376.82C365.645 378.814 368.932 380.005 372.355 380.264C375.778 380.523 379.207 379.841 382.27 378.29Z" fill="#0010F7"/>
<path d="M381.94 377.92C378.892 375.678 376.044 373.176 373.43 370.44C370.813 367.678 368.974 364.273 368.1 360.57C367.929 360.022 367.878 359.444 367.951 358.874C368.023 358.305 368.217 357.758 368.52 357.27C375.3 362.57 380.63 369.42 381.94 377.92Z" fill="#0010F7"/>
<path d="M382.2 378.24C381.573 374.538 381.627 370.753 382.36 367.07C383.12 363.363 385.243 360.077 388.31 357.86C389.48 360.6 388.98 363.75 388.15 366.61C386.877 371.045 384.884 375.241 382.25 379.03" fill="#0010F7"/>
<path d="M388.85 390.15C384.862 390.794 381.172 392.66 378.29 395.49C375.277 398.252 373.183 401.871 372.29 405.86C376.29 405.62 379.6 402.86 382.04 399.7C384.48 396.54 386.16 393.14 388.83 390.21" fill="#0010F7"/>
<path d="M390.29 392.05C388.698 388.02 388.139 383.656 388.662 379.354C389.186 375.053 390.777 370.95 393.29 367.42C395.59 375.59 394.75 384.83 390.29 392.05Z" fill="#0010F7"/>
<path d="M399.07 402.51C395.383 402.277 391.708 403.137 388.507 404.981C385.305 406.826 382.718 409.573 381.07 412.88C380.924 413.082 380.835 413.319 380.812 413.567C380.789 413.815 380.833 414.065 380.94 414.29C381.098 414.439 381.289 414.549 381.498 414.61C381.706 414.671 381.927 414.681 382.14 414.64C385.69 414.41 388.83 412.27 391.43 409.84C394.03 407.41 396.29 404.6 399.15 402.5" fill="#0010F7"/>
<path d="M398.79 401.94C396.907 395.851 396.792 389.352 398.46 383.2C399.12 380.79 400.23 378.25 402.46 377.12C402.549 377.063 402.65 377.024 402.755 377.007C402.86 376.99 402.967 376.994 403.07 377.02C403.251 377.113 403.39 377.27 403.46 377.46C404.206 379.15 404.529 380.997 404.4 382.84C404.269 384.673 403.988 386.493 403.56 388.28C402.85 391.61 402.48 395.18 400.66 398.05C400.225 398.736 399.837 399.451 399.5 400.19C399.15 400.92 399.15 401.19 398.83 401.76" fill="#0010F7"/>
<path d="M422 405.4C421.221 401.981 421.196 398.433 421.926 395.004C422.657 391.574 424.125 388.345 426.23 385.54C426.54 385.15 426.94 384.72 427.44 384.77C428.2 384.84 428.39 385.85 428.36 386.61C428.048 393.347 425.844 399.859 422 405.4Z" fill="#0010F7"/>
<path d="M424.13 406.84C428.197 407.795 432.423 407.857 436.516 407.021C440.609 406.186 444.473 404.472 447.84 402C443.868 400.014 439.332 399.463 435 400.44C430.71 401.44 426.79 403.34 424.12 406.84" fill="#0010F7"/>
<path d="M425.9 402.47C430.36 395.21 438.9 390.47 447.42 390.03C446.42 393.5 443.59 396.19 440.42 397.81C437.133 399.287 433.656 400.297 430.09 400.81C428.72 401.08 426.83 401.37 425.94 402.45" fill="#0010F7"/>
<path d="M422.48 381.31C423.83 377.216 424.751 372.994 425.23 368.71C425.703 364.394 424.826 360.037 422.72 356.24C418.56 364.3 418.14 373.71 422.36 381.74" fill="#0010F7"/>
<path d="M436.5 374.22C441.37 365.38 451.3 358.31 461.35 357.32C457.47 366.97 446.9 374.43 436.5 374.22Z" fill="#0010F7"/>
<path d="M433.44 376C440.7 377.1 446.88 381.74 453.67 384.55C455.092 385.234 456.666 385.537 458.24 385.43C458.972 385.421 459.684 385.189 460.28 384.763C460.875 384.337 461.326 383.739 461.571 383.049C461.817 382.359 461.844 381.611 461.651 380.905C461.458 380.199 461.052 379.569 460.49 379.1C459.526 378.216 458.394 377.535 457.16 377.1C449.77 374.02 441.85 373.95 434.06 375.81" fill="#0010F7"/>
<path d="M429.23 381.05C430.88 381.52 431.44 382.37 432.74 383.48C437.179 387.251 442.429 389.948 448.08 391.36C448.67 391.51 449.44 391.57 449.73 391.04C450.02 390.51 449.66 390.04 449.33 389.6C446.865 386.709 443.666 384.536 440.07 383.31C436.53 382 433.46 380.41 429.23 380.75" fill="#0010F7"/>
<path d="M424.49 350.29C427.468 353.034 430.986 355.125 434.82 356.43C438.653 357.736 442.716 358.226 446.75 357.87C447.116 357.867 447.47 357.736 447.75 357.5C448.31 356.89 447.64 355.95 446.98 355.44C440.44 350.34 432.51 348.22 424.47 350.29" fill="#0010F7"/>
<path d="M430.11 348.23C434.05 345.328 438.622 343.4 443.45 342.604C448.278 341.808 453.227 342.167 457.89 343.65C454.26 347.021 449.598 349.068 444.66 349.46C439.775 349.907 434.85 349.491 430.11 348.23Z" fill="#0010F7"/>
<path d="M427.88 334.1C427.24 327.57 427.65 322.41 427.2 315.85C427.2 315.32 427.05 314.69 426.56 314.5C425.88 314.24 425.31 315.08 425.08 315.78C424.124 318.828 423.878 322.055 424.361 325.214C424.845 328.372 426.045 331.377 427.87 334" fill="#0010F7"/>
<path d="M427.41 334.82C431.679 332.066 435.357 328.49 438.23 324.3C440.37 321.38 442.17 317.88 441.68 314.3C440.177 314.339 438.7 314.706 437.353 315.374C436.006 316.042 434.82 316.997 433.88 318.17C432.009 320.532 430.647 323.256 429.88 326.17C429.01 329.04 428.41 332 427.39 334.82" fill="#0010F7"/>
<path d="M438 331.87C447.742 328.262 456.761 322.942 464.63 316.16C461.45 314.88 457.81 315.65 454.63 316.93C447.426 319.679 441.476 324.968 437.9 331.8" fill="#0010F7"/>
<path d="M430.4 338.4C435.304 339.093 440.28 339.117 445.19 338.47C449.98 337.67 454.51 335.77 458.99 333.88C459.381 333.769 459.716 333.516 459.93 333.17C460.003 332.962 460.009 332.737 459.948 332.526C459.887 332.314 459.762 332.127 459.59 331.99C459.252 331.713 458.85 331.524 458.42 331.44C453.55 330.07 448.29 330.71 443.5 332.33C438.932 333.887 434.541 335.921 430.4 338.4Z" fill="#0010F7"/>
<path d="M402.33 350.52C398.97 343.74 399.19 335.84 402.09 328.87C404.09 331.97 404.38 335.93 404 339.63C403.62 343.33 402.5 347.14 402.43 350.85" fill="#0010F7"/>
<path d="M388.93 343.76C384.73 343.706 380.566 344.528 376.702 346.174C372.838 347.82 369.36 350.254 366.49 353.32C370.727 353.807 375.012 352.998 378.78 351C382.515 349.03 386.04 346.685 389.3 344" fill="#0010F7"/>
<path d="M379.92 340.74C375.82 340.41 371.92 339.9 367.92 341.11C365.932 341.669 364.087 342.65 362.512 343.986C360.937 345.321 359.667 346.98 358.79 348.85C362.649 349.157 366.52 348.425 370 346.73C373.468 345.033 376.775 343.024 379.88 340.73" fill="#0010F7"/>
<path d="M393.26 340.88C389.57 338.47 385.79 336.01 381.49 335.01C377.19 334.01 372.23 334.75 369.24 338.01C372.71 340.01 376.93 340.29 380.95 340.29C384.97 340.29 389.95 340.24 393.72 341.58" fill="#0010F7"/>
<path d="M393.28 341.08C386.98 334.89 384.59 323.78 387.12 315.32C392.097 322.933 394.274 332.039 393.28 341.08Z" fill="#0010F7"/>
<path d="M410.6 323.55C411.79 320.78 412.6 317.88 413.69 315.07C414.667 312.217 416.162 309.57 418.1 307.26C420.077 304.958 422.877 303.522 425.9 303.26C424.932 307.522 423.086 311.535 420.479 315.042C417.872 318.55 414.562 321.475 410.76 323.63" fill="#0010F7"/>
<path d="M407.47 327.2C405.47 324.49 403.23 320.82 400.56 318.8C397.89 316.78 394.42 315.56 391.17 316.33C392.854 319.285 395.204 321.806 398.034 323.693C400.864 325.58 404.095 326.781 407.47 327.2Z" fill="#0010F7"/>
<path d="M408.1 323.77C406.689 320.545 405.649 317.17 405 313.71C404.351 310.217 404.905 306.608 406.57 303.47C410.03 310.01 411.15 317.03 408.28 323.85" fill="#0010F7"/>
<path d="M410.64 303.47C412.59 296.99 418.53 292.22 424.94 290.03C425.73 289.702 426.588 289.571 427.44 289.65C427.866 289.695 428.269 289.866 428.598 290.14C428.927 290.414 429.168 290.779 429.29 291.19C429.53 292.3 428.61 293.28 427.76 294.02C422.749 298.292 416.925 301.506 410.64 303.47Z" fill="#0010F7"/>
<path d="M410.71 298.17C410.96 293.99 411.22 289.75 412.58 285.79C413.94 281.83 416.58 278.12 420.37 276.39C421.01 280.61 419.15 284.8 416.91 288.44C414.67 292.08 411.91 295.5 410.6 299.55" fill="#0010F7"/>
<path d="M410.6 301.05C408.98 296.32 408.82 290.32 405.99 286.21C403.99 283.33 400.85 281.37 399.14 278.33C398.116 281.25 398.259 284.453 399.54 287.27C400.823 290.059 402.594 292.595 404.77 294.76C406.87 297 408.66 298.68 410.6 301.05Z" fill="#0010F7"/>
<path d="M410.64 440.15C410.51 440.15 410.4 408.64 410.39 369.78C410.38 330.92 410.48 299.4 410.6 299.4C410.72 299.4 410.84 330.9 410.85 369.78C410.86 408.66 410.76 440.15 410.64 440.15Z" fill="#263238"/>
<path d="M438.17 345.76C437.792 345.948 437.397 346.099 436.99 346.21L433.73 347.31C430.98 348.24 427.2 349.6 423.1 351.31C419 353.02 415.22 354.46 413.04 356.31C412.177 357.039 411.493 357.956 411.04 358.99C410.73 359.73 410.68 360.18 410.63 360.17C410.612 360.061 410.612 359.949 410.63 359.84C410.675 359.526 410.752 359.218 410.86 358.92C411.28 357.819 411.967 356.839 412.86 356.07C414.175 354.957 415.648 354.043 417.23 353.36C418.98 352.54 420.91 351.69 422.97 350.85C427.08 349.16 430.89 347.85 433.67 346.99C435.06 346.56 436.19 346.24 436.98 345.99C437.369 345.876 437.767 345.799 438.17 345.76Z" fill="#263238"/>
<path d="M447.2 323.59C447.1 323.719 446.99 323.839 446.87 323.95L445.87 324.89L442.1 328.32L429.54 339.51C424.63 343.88 420.39 348.05 417.46 351.19C415.99 352.76 414.83 354.06 414.04 354.96C413.67 355.38 413.37 355.73 413.12 355.96C412.87 356.19 412.8 356.32 412.78 356.31C412.853 356.166 412.943 356.031 413.05 355.91C413.24 355.65 413.52 355.28 413.9 354.81C414.65 353.81 415.78 352.53 417.22 350.93C421.006 346.785 425.012 342.846 429.22 339.13C434.14 334.78 438.62 330.86 441.88 328.04L445.75 324.72L446.81 323.84C446.931 323.743 447.061 323.659 447.2 323.59Z" fill="#263238"/>
<path d="M424.22 344C424.09 343.94 425.12 341.58 426.14 338.58C427.16 335.58 427.65 333.07 427.78 333.09C427.675 335.022 427.266 336.925 426.57 338.73C426.133 340.021 425.622 341.287 425.04 342.52C424.841 343.051 424.565 343.55 424.22 344Z" fill="#263238"/>
<path d="M410.66 363C410.38 362.733 410.129 362.438 409.91 362.12L408 359.66C406.38 357.56 404.13 354.66 401.61 351.48C399.09 348.3 396.77 345.48 395.09 343.4L393.09 340.95C392.832 340.66 392.604 340.346 392.41 340.01C392.711 340.254 392.986 340.529 393.23 340.83C393.73 341.38 394.45 342.18 395.32 343.19C397.06 345.19 399.42 348.02 401.95 351.19C404.48 354.36 406.68 357.3 408.24 359.46C409.02 360.53 409.64 361.41 410.06 362.03C410.297 362.329 410.499 362.654 410.66 363Z" fill="#263238"/>
<path d="M404.63 355.27C403.408 353.923 402.539 352.295 402.1 350.53C401.623 348.987 401.427 347.372 401.52 345.76H401.73C401.64 346.12 401.57 346.31 401.53 346.31C401.49 346.31 401.53 346.1 401.53 345.72H401.73C401.827 347.294 402.096 348.854 402.53 350.37C403.106 352.054 403.808 353.692 404.63 355.27Z" fill="#263238"/>
<path d="M396.83 345.46C396.287 345.055 395.696 344.72 395.07 344.46C393.479 343.984 391.806 343.851 390.16 344.07C388.497 344.196 386.848 344.463 385.23 344.87C384.576 345.077 383.907 345.238 383.23 345.35C383.839 344.995 384.496 344.729 385.18 344.56C386.805 344.056 388.483 343.741 390.18 343.62C391.886 343.388 393.622 343.573 395.24 344.16C395.9 344.404 396.46 344.862 396.83 345.46Z" fill="#263238"/>
<path d="M395 343.09C395 343.16 394 342.68 392.3 342.09C387.912 340.602 383.218 340.258 378.66 341.09C376.92 341.41 375.86 341.73 375.84 341.66C376.063 341.521 376.306 341.417 376.56 341.35C377.216 341.123 377.883 340.933 378.56 340.78C383.167 339.769 387.969 340.135 392.37 341.83C393.031 342.082 393.676 342.376 394.3 342.71C394.76 342.92 395 343.06 395 343.09Z" fill="#263238"/>
<path d="M410.6 333C409.792 330.76 409.124 328.473 408.6 326.15C407.941 323.852 407.43 321.514 407.07 319.15C407.878 321.39 408.546 323.677 409.07 326C409.735 328.297 410.246 330.635 410.6 333Z" fill="#263238"/>
<path d="M410.73 333C410.1 331.582 409.368 330.212 408.54 328.9C407.619 327.655 406.536 326.539 405.32 325.58C405.784 325.684 406.214 325.904 406.57 326.22C407.486 326.886 408.281 327.705 408.92 328.64C409.894 329.91 410.518 331.413 410.73 333Z" fill="#263238"/>
<path d="M410.64 423.35C410.59 423.35 410.49 422.59 410.14 421.25C409.609 419.367 408.892 417.541 408 415.8C404.967 410.096 401.213 404.806 396.83 400.06C394.34 397.21 391.92 394.52 389.83 391.95C387.985 389.683 386.313 387.279 384.83 384.76C383.841 383.059 383.001 381.276 382.32 379.43C382.08 378.77 381.91 378.26 381.82 377.9C381.761 377.724 381.717 377.544 381.69 377.36C381.69 377.36 381.96 378.08 382.48 379.36C383.224 381.167 384.103 382.915 385.11 384.59C386.602 387.069 388.273 389.435 390.11 391.67C392.17 394.22 394.6 396.9 397.11 399.75C401.521 404.521 405.262 409.87 408.23 415.65C409.097 417.422 409.768 419.283 410.23 421.2C410.35 421.722 410.443 422.249 410.51 422.78C410.572 422.965 410.615 423.156 410.64 423.35Z" fill="#263238"/>
<path d="M435.52 395.25C435.097 395.518 434.66 395.761 434.21 395.98C433.033 396.644 431.904 397.389 430.83 398.21C429.245 399.444 427.761 400.802 426.39 402.27C424.83 403.91 423.22 405.83 421.58 407.87C418.31 411.99 415.24 415.63 413.41 418.53C412.47 419.97 411.8 421.19 411.35 422.04C411.145 422.493 410.907 422.931 410.64 423.35C410.64 423.35 410.64 423.22 410.76 422.98C410.88 422.74 410.99 422.39 411.19 421.98C411.764 420.742 412.412 419.54 413.13 418.38C415.625 414.64 418.329 411.044 421.23 407.61C422.87 405.61 424.5 403.61 426.09 401.99C427.492 400.531 429.014 399.193 430.64 397.99C431.739 397.176 432.906 396.46 434.13 395.85C434.56 395.63 434.92 395.5 435.13 395.4C435.34 395.3 435.51 395.23 435.52 395.25Z" fill="#263238"/>
<path d="M436 404.36C435.092 404.565 434.169 404.699 433.24 404.76C431.026 404.992 428.837 405.423 426.7 406.05C424.59 406.734 422.612 407.772 420.85 409.12C419.5 410.17 418.85 411.03 418.8 410.98C418.898 410.744 419.036 410.527 419.21 410.34C419.64 409.807 420.119 409.314 420.64 408.87C422.388 407.418 424.397 406.315 426.56 405.62C428.725 404.976 430.956 404.58 433.21 404.44C434.136 404.33 435.069 404.304 436 404.36Z" fill="#263238"/>
<path d="M419.61 410C419.47 409.91 420.71 408 421.68 405.46C422.65 402.92 422.79 400.63 422.95 400.66C423.036 401.15 423.036 401.65 422.95 402.14C422.811 403.326 422.542 404.492 422.15 405.62C421.725 406.738 421.189 407.81 420.55 408.82C420 409.56 419.67 410 419.61 410Z" fill="#263238"/>
<path d="M443.58 370.77C443.439 370.858 443.292 370.934 443.14 371L441.84 371.59C441.27 371.83 440.58 372.14 439.84 372.59C439.1 373.04 438.15 373.41 437.2 373.98L435.7 374.83C435.18 375.13 434.7 375.49 434.11 375.83C433.01 376.5 431.9 377.33 430.71 378.18C428.188 380.084 425.812 382.173 423.6 384.43C421.426 386.718 419.421 389.162 417.6 391.74C416.79 392.96 416 394.1 415.37 395.23C415.05 395.79 414.71 396.31 414.43 396.85L413.62 398.38C413.09 399.38 412.71 400.27 412.33 401.06C411.95 401.85 411.66 402.55 411.44 403.12L410.9 404.44C410.843 404.594 410.769 404.742 410.68 404.88C410.701 404.715 410.745 404.553 410.81 404.4C410.93 404.05 411.09 403.6 411.27 403.06C411.509 402.346 411.786 401.645 412.1 400.96C412.45 400.15 412.82 399.21 413.34 398.23L414.12 396.68C414.39 396.14 414.73 395.6 415.05 395.04C415.67 393.89 416.45 392.73 417.25 391.51C419.056 388.892 421.062 386.418 423.25 384.11C425.476 381.835 427.876 379.739 430.43 377.84C431.63 377 432.76 376.17 433.88 375.51C434.44 375.17 434.96 374.82 435.49 374.51L437.02 373.67C438.02 373.12 438.91 372.72 439.7 372.34C440.49 371.96 441.19 371.67 441.77 371.45L443.1 370.94C443.252 370.862 443.413 370.805 443.58 370.77Z" fill="#263238"/>
<path d="M423.88 384C424.067 383.363 424.448 382.8 424.97 382.39C426.18 381.335 427.725 380.744 429.33 380.72C430.904 380.713 432.463 381.015 433.92 381.61C434.54 381.804 435.126 382.091 435.66 382.46C435.029 382.332 434.41 382.151 433.81 381.92C432.373 381.421 430.862 381.167 429.34 381.17C427.834 381.204 426.377 381.715 425.18 382.63C424.717 383.058 424.283 383.516 423.88 384Z" fill="#263238"/>
<path d="M420.94 387C421.527 385.727 421.944 384.382 422.18 383C422.267 381.59 422.173 380.176 421.9 378.79C422.163 379.133 422.338 379.534 422.41 379.96C422.679 380.967 422.754 382.015 422.63 383.05C422.517 384.099 422.205 385.118 421.71 386.05C421.32 386.67 421 387 420.94 387Z" fill="#263238"/>
<path d="M388.87 427.87C389.55 439.87 393.18 452.15 398.76 464.54H423C428.33 452.28 431.7 440.05 432.3 427.87H388.87Z" fill="#455A64"/>
<path d="M428.4 447.35C428.4 447.48 420.4 447.58 410.55 447.58C400.7 447.58 392.71 447.48 392.71 447.35C392.71 447.22 400.71 447.12 410.55 447.12C420.39 447.12 428.4 447.23 428.4 447.35Z" fill="#FAFAFA"/>
<path d="M427.86 451.71C427.86 451.84 420.37 451.94 411.13 451.94C401.89 451.94 394.4 451.84 394.4 451.71C394.4 451.58 401.89 451.49 411.13 451.49C420.37 451.49 427.86 451.59 427.86 451.71Z" fill="#FAFAFA"/>
<path d="M236.707 253.213L240.14 261.103C240.787 262.594 241.856 263.864 243.216 264.756C244.575 265.648 246.166 266.122 247.791 266.122H262.161C264.067 266.121 265.895 265.364 267.243 264.016H294.079C295.115 264.016 296.137 263.77 297.06 263.298C297.982 262.825 298.78 262.14 299.386 261.3L302.931 256.386L236.707 253.213Z" fill="#2E353A"/>
<path d="M258.574 221.933C258.574 225.717 273.652 252.588 275.161 253.655C276.67 254.722 296.353 253.529 296.353 253.529L294.886 259.102H240.835L218.372 215.503L233.226 194.072L260.286 194.824C260.286 194.824 258.574 218.157 258.574 221.933Z" fill="#4365C3"/>
<path opacity="0.2" d="M258.574 221.933C258.574 225.717 273.652 252.588 275.161 253.655C276.67 254.722 296.353 253.529 296.353 253.529L294.886 259.102H240.835L218.372 215.503L233.226 194.072L260.286 194.824C260.286 194.824 258.574 218.157 258.574 221.933Z" fill="black"/>
<path d="M214.666 279.867C226.843 279.867 236.714 267.958 236.714 253.269C236.714 238.58 226.843 226.672 214.666 226.672C202.489 226.672 192.617 238.58 192.617 253.269C192.617 267.958 202.489 279.867 214.666 279.867Z" fill="#2E353A"/>
<path d="M210.973 270.046C218.653 270.046 224.879 262.535 224.879 253.269C224.879 244.004 218.653 236.492 210.973 236.492C203.293 236.492 197.067 244.004 197.067 253.269C197.067 262.535 203.293 270.046 210.973 270.046Z" fill="white"/>
<path d="M207.779 260.029C210.978 260.029 213.571 256.902 213.571 253.045C213.571 249.187 210.978 246.06 207.779 246.06C204.581 246.06 201.988 249.187 201.988 253.045C201.988 256.902 204.581 260.029 207.779 260.029Z" fill="#4365C3"/>
<path opacity="0.4" d="M207.779 260.029C210.978 260.029 213.571 256.902 213.571 253.045C213.571 249.187 210.978 246.06 207.779 246.06C204.581 246.06 201.988 249.187 201.988 253.045C201.988 256.902 204.581 260.029 207.779 260.029Z" fill="black"/>
<path d="M337.488 213.089C337.488 213.089 317.588 228.349 310 259.804H278.13L308.315 210.667L324.235 204.047L337.488 213.089Z" fill="#4365C3"/>
<path opacity="0.4" d="M339.545 211.537C339.545 211.537 320.936 225.766 312.049 252.539C311.363 254.643 310.031 256.478 308.243 257.782C306.455 259.086 304.302 259.794 302.088 259.804H278.13L308.315 210.667L324.235 204.047L339.545 211.537Z" fill="black"/>
<path d="M337.629 212.773H325.337C323.005 212.744 320.716 213.414 318.767 214.696C311.474 219.554 294.198 233.101 292.401 254.568C292.289 255.984 291.65 257.308 290.611 258.277C289.571 259.246 288.207 259.791 286.786 259.804H233.359C224.381 259.805 215.564 257.424 207.808 252.904L192.533 244.003C190.887 243.041 189.584 241.589 188.806 239.849C188.028 238.109 187.814 236.169 188.195 234.302C190.013 225.534 195.137 210.491 209.801 204.609C210.033 204.503 209.682 204.412 210.384 204.328V195.223H248.683C248.683 195.223 241.003 213.538 241.003 221.091C241.003 228.216 248.557 255.592 258.328 258.4H271.665C273.438 258.357 275.168 257.848 276.681 256.924C278.194 255.999 279.438 254.693 280.285 253.136C286.786 241.532 301.225 211.446 296.725 183.009C296.199 179.689 298.754 176.27 302.124 176.27H319.322C319.322 176.27 334.765 194.185 339.777 209.326C340.289 210.8 339.187 212.773 337.629 212.773Z" fill="#4365C3"/>
<path d="M310.063 170.57H305.149C303.859 170.57 302.609 170.129 301.604 169.321L291.503 161.143C291.106 160.82 290.611 160.642 290.099 160.638H270.682C270.31 160.638 269.953 160.49 269.69 160.226C269.426 159.963 269.279 159.606 269.279 159.234C269.279 158.861 269.426 158.504 269.69 158.241C269.953 157.978 270.31 157.83 270.682 157.83H290.085C291.241 157.83 292.361 158.229 293.258 158.96L303.366 167.145C303.868 167.551 304.496 167.772 305.142 167.77H310.056C310.737 167.767 311.394 167.521 311.909 167.075C312.424 166.63 312.763 166.014 312.864 165.341L313.306 162.182C313.483 160.979 314.086 159.88 315.004 159.083C315.922 158.286 317.095 157.844 318.311 157.837H321.996C322.368 157.837 322.726 157.985 322.989 158.248C323.252 158.511 323.4 158.868 323.4 159.241C323.4 159.613 323.252 159.97 322.989 160.233C322.726 160.497 322.368 160.645 321.996 160.645H318.297C317.757 160.649 317.236 160.845 316.828 161.199C316.42 161.553 316.152 162.041 316.071 162.575L315.629 165.734C315.432 167.072 314.762 168.295 313.741 169.182C312.72 170.069 311.415 170.561 310.063 170.57Z" fill="#2E353A"/>
<path d="M301.393 164.618C301.393 164.618 301.457 167.931 298.347 167.721L297.336 171.315C297.192 171.821 297.155 172.352 297.229 172.873C297.303 173.394 297.485 173.894 297.764 174.34L299.961 177.85H320.318L321.919 174.832C322.175 174.351 322.272 173.802 322.195 173.263C322.118 172.724 321.871 172.223 321.491 171.834L315.426 165.636C315.108 165.309 314.728 165.049 314.309 164.872C313.889 164.695 313.438 164.604 312.983 164.604L301.393 164.618Z" fill="#4365C3"/>
<path opacity="0.4" d="M301.393 164.618C301.393 164.618 301.457 167.931 298.347 167.721L297.336 171.315C297.192 171.821 297.155 172.352 297.229 172.873C297.303 173.394 297.485 173.894 297.764 174.34L299.961 177.85H320.318L321.919 174.832C322.175 174.351 322.272 173.802 322.195 173.263C322.118 172.724 321.871 172.223 321.491 171.834L315.426 165.636C315.108 165.309 314.728 165.049 314.309 164.872C313.889 164.695 313.438 164.604 312.983 164.604L301.393 164.618Z" fill="black"/>
<path d="M336.351 279.867C348.528 279.867 358.4 267.958 358.4 253.269C358.4 238.58 348.528 226.672 336.351 226.672C324.174 226.672 314.303 238.58 314.303 253.269C314.303 267.958 324.174 279.867 336.351 279.867Z" fill="#2E353A"/>
<path d="M332.666 270.046C340.346 270.046 346.572 262.535 346.572 253.269C346.572 244.004 340.346 236.492 332.666 236.492C324.986 236.492 318.76 244.004 318.76 253.269C318.76 262.535 324.986 270.046 332.666 270.046Z" fill="white"/>
<path d="M358.049 236.113C355.726 232.161 349.513 223.618 338.345 221.119C335.483 220.448 332.515 220.362 329.619 220.866L329.57 220.747L329.619 220.642H329.528L327.612 216.282H325.429C323.656 216.282 321.931 216.859 320.515 217.925L316.682 220.803L318.486 227.058C317.964 227.617 317.477 228.208 317.026 228.827C313.792 232.845 311.588 237.592 310.603 242.655C310.571 242.867 310.584 243.082 310.643 243.288C310.702 243.493 310.805 243.684 310.944 243.846C311.084 244.008 311.256 244.138 311.451 244.227C311.645 244.316 311.857 244.361 312.07 244.361H313.222C313.524 244.366 313.82 244.279 314.071 244.111C314.322 243.942 314.515 243.702 314.625 243.42C315.654 240.703 317.283 238.253 319.392 236.253L325.787 252.904L330.932 250.742L329.128 229.992C329.128 229.992 340.963 226.665 348.713 236.239C349.164 236.8 349.734 237.253 350.383 237.566C351.031 237.878 351.742 238.041 352.461 238.043H356.961C357.185 238.039 357.404 237.977 357.596 237.862C357.789 237.748 357.948 237.585 358.058 237.39C358.168 237.195 358.225 236.974 358.223 236.75C358.222 236.526 358.162 236.307 358.049 236.113Z" fill="#4365C3"/>
<path opacity="0.2" d="M358.049 236.113C355.726 232.161 349.513 223.618 338.345 221.119C335.483 220.448 332.515 220.362 329.619 220.866L329.57 220.747L329.619 220.642H329.528L327.612 216.282H325.429C323.656 216.282 321.931 216.859 320.515 217.925L316.682 220.803L318.486 227.058C317.964 227.617 317.477 228.208 317.026 228.827C313.792 232.845 311.588 237.592 310.603 242.655C310.571 242.867 310.584 243.082 310.643 243.288C310.702 243.493 310.805 243.684 310.944 243.846C311.084 244.008 311.256 244.138 311.451 244.227C311.645 244.316 311.857 244.361 312.07 244.361H313.222C313.524 244.366 313.82 244.279 314.071 244.111C314.322 243.942 314.515 243.702 314.625 243.42C315.654 240.703 317.283 238.253 319.392 236.253L325.787 252.904L330.932 250.742L329.128 229.992C329.128 229.992 340.963 226.665 348.713 236.239C349.164 236.8 349.734 237.253 350.383 237.566C351.031 237.878 351.742 238.041 352.461 238.043H356.961C357.185 238.039 357.404 237.977 357.596 237.862C357.789 237.748 357.948 237.585 358.058 237.39C358.168 237.195 358.225 236.974 358.223 236.75C358.222 236.526 358.162 236.307 358.049 236.113Z" fill="black"/>
<path d="M329.472 260.029C332.67 260.029 335.263 256.902 335.263 253.045C335.263 249.187 332.67 246.06 329.472 246.06C326.274 246.06 323.681 249.187 323.681 253.045C323.681 256.902 326.274 260.029 329.472 260.029Z" fill="#4365C3"/>
<path opacity="0.4" d="M329.472 260.029C332.67 260.029 335.263 256.902 335.263 253.045C335.263 249.187 332.67 246.06 329.472 246.06C326.274 246.06 323.681 249.187 323.681 253.045C323.681 256.902 326.274 260.029 329.472 260.029Z" fill="black"/>
<path d="M308.617 178.629C308.617 178.629 312.26 201.57 324.292 201.724C335.572 201.878 336.625 180.342 325.864 177.036C317.174 174.361 308.617 178.629 308.617 178.629Z" fill="#4365C3"/>
<path opacity="0.2" d="M308.617 178.629C308.617 178.629 312.26 201.57 324.292 201.724C335.572 201.878 336.625 180.342 325.864 177.036C317.174 174.361 308.617 178.629 308.617 178.629Z" fill="black"/>
<path d="M332.617 189.18C332.883 194.999 329.374 199.709 324.776 199.709C320.178 199.709 316.24 194.985 315.973 189.18C315.706 183.374 319.216 178.65 323.807 178.65C328.398 178.65 332.35 183.353 332.617 189.18Z" fill="white"/>
<path d="M321.168 174.137H310.723L311.551 172.789H321.168V174.137Z" fill="#4365C3"/>
<path d="M263.733 194.255V196.894C263.733 199.288 261.775 200.839 259.374 200.839H211.907C209.499 200.839 207.576 199.288 207.576 196.894V194.255C207.576 191.861 209.499 190.31 211.907 190.31H259.374C261.775 190.31 263.733 191.861 263.733 194.255Z" fill="#2E353A"/>
<path opacity="0.2" d="M248.29 194.255V196.894C248.316 197.428 248.229 197.961 248.034 198.458C247.838 198.955 247.54 199.405 247.157 199.778C246.775 200.151 246.318 200.439 245.816 200.622C245.314 200.805 244.779 200.879 244.247 200.84H211.907C209.499 200.84 207.576 199.288 207.576 196.894V194.255C207.576 191.861 209.499 190.31 211.907 190.31H244.247C244.779 190.271 245.314 190.345 245.816 190.528C246.318 190.711 246.775 190.998 247.157 191.371C247.54 191.744 247.838 192.194 248.034 192.691C248.229 193.189 248.316 193.722 248.29 194.255Z" fill="white"/>
<path opacity="0.2" d="M242.316 242.873V259.804H233.359C224.381 259.805 215.564 257.424 207.808 252.904L192.533 244.003C190.887 243.042 189.584 241.589 188.806 239.849C188.028 238.109 187.814 236.17 188.195 234.302C190.013 225.534 195.214 210.491 209.906 204.609L210.608 204.644H216.54C219.963 204.643 223.316 205.619 226.204 207.457C229.092 209.295 231.397 211.918 232.847 215.019L239.164 228.567C241.248 233.048 242.324 237.931 242.316 242.873Z" fill="black"/>
<path d="M281.957 148.341L280.842 149.194L288.446 159.135L289.561 158.282L281.957 148.341Z" fill="#2E353A"/>
<path d="M277.386 147.139H280.966C281.338 147.139 281.702 147.248 282.013 147.453C282.323 147.657 282.567 147.948 282.714 148.29L283.191 149.406C283.314 149.695 283.364 150.01 283.335 150.323C283.307 150.636 283.201 150.937 283.028 151.199C282.855 151.461 282.62 151.676 282.343 151.825C282.067 151.974 281.758 152.052 281.444 152.053H277.548C277.09 152.054 276.648 151.89 276.302 151.59C275.957 151.291 275.731 150.877 275.666 150.424L275.505 149.308C275.467 149.039 275.487 148.764 275.564 148.503C275.641 148.242 275.773 148 275.951 147.795C276.13 147.589 276.35 147.424 276.598 147.311C276.845 147.198 277.114 147.139 277.386 147.139Z" fill="#4365C3"/>
<path d="M317.676 149.915L315.804 158.804L317.178 159.093L319.05 150.204L317.676 149.915Z" fill="#2E353A"/>
<path d="M322.572 147.139H318.718C318.34 147.139 317.975 147.275 317.69 147.523C317.405 147.77 317.219 148.113 317.167 148.487L316.907 150.263C316.875 150.487 316.893 150.716 316.958 150.933C317.024 151.15 317.135 151.351 317.285 151.521C317.435 151.691 317.62 151.826 317.827 151.918C318.035 152.01 318.26 152.056 318.486 152.053H322.333C322.711 152.053 323.076 151.917 323.361 151.669C323.646 151.421 323.832 151.079 323.884 150.705L324.144 148.929C324.175 148.705 324.158 148.477 324.093 148.26C324.028 148.044 323.917 147.844 323.768 147.674C323.619 147.504 323.435 147.368 323.228 147.276C323.022 147.183 322.798 147.137 322.572 147.139Z" fill="#4365C3"/>
<path d="M289.544 192.858L283.458 180.033C283.083 179.242 282.413 178.629 281.592 178.326C280.77 178.023 279.863 178.054 279.064 178.412L263.179 185.431C262.529 185.722 261.99 186.215 261.641 186.835L245.25 215.04C245 215.473 244.849 215.956 244.809 216.455C244.769 216.954 244.84 217.455 245.019 217.922C245.197 218.39 245.477 218.812 245.839 219.157C246.201 219.502 246.635 219.763 247.111 219.919L270.275 227.493C271.038 227.744 271.865 227.714 272.607 227.407C273.349 227.101 273.956 226.538 274.319 225.822L289.502 195.799C289.735 195.345 289.86 194.844 289.868 194.334C289.875 193.823 289.764 193.318 289.544 192.858ZM279.759 182.974C279.396 182.856 279.077 182.632 278.841 182.332C278.605 182.031 278.464 181.668 278.435 181.287C278.406 180.907 278.49 180.526 278.677 180.193C278.864 179.861 279.146 179.591 279.486 179.418C279.827 179.246 280.211 179.178 280.59 179.223C280.969 179.269 281.326 179.426 281.616 179.674C281.906 179.922 282.115 180.251 282.218 180.619C282.321 180.986 282.313 181.376 282.195 181.739C282.034 182.225 281.688 182.627 281.232 182.859C280.775 183.09 280.246 183.132 279.759 182.974Z" fill="#4365C3"/>
<path opacity="0.6" d="M289.544 192.858L283.458 180.033C283.083 179.242 282.413 178.629 281.592 178.326C280.77 178.023 279.863 178.054 279.064 178.412L263.179 185.431C262.529 185.722 261.99 186.215 261.641 186.835L245.25 215.04C245 215.473 244.849 215.956 244.809 216.455C244.769 216.954 244.84 217.455 245.019 217.922C245.197 218.39 245.477 218.812 245.839 219.157C246.201 219.502 246.635 219.763 247.111 219.919L270.275 227.493C271.038 227.744 271.865 227.714 272.607 227.407C273.349 227.101 273.956 226.538 274.319 225.822L289.502 195.799C289.735 195.345 289.86 194.844 289.868 194.334C289.875 193.823 289.764 193.318 289.544 192.858ZM279.759 182.974C279.396 182.856 279.077 182.632 278.841 182.332C278.605 182.031 278.464 181.668 278.435 181.287C278.406 180.907 278.49 180.526 278.677 180.193C278.864 179.861 279.146 179.591 279.486 179.418C279.827 179.246 280.211 179.178 280.59 179.223C280.969 179.269 281.326 179.426 281.616 179.674C281.906 179.922 282.115 180.251 282.218 180.619C282.321 180.986 282.313 181.376 282.195 181.739C282.034 182.225 281.688 182.627 281.232 182.859C280.775 183.09 280.246 183.132 279.759 182.974Z" fill="white"/>
<path d="M277.484 199.716C277.17 198.836 276.641 198.047 275.947 197.421C275.093 196.648 274.089 196.058 272.999 195.687L268.942 203.359C268.979 203.37 269.015 203.387 269.047 203.409C269.076 203.432 269.109 203.449 269.145 203.458C270.091 204.004 271.003 204.606 271.876 205.262C272.576 205.775 273.185 206.402 273.68 207.115C274.1 207.722 274.343 208.434 274.382 209.172C274.365 210.04 274.123 210.889 273.68 211.636C273.238 212.506 272.61 213.268 271.841 213.868C271.101 214.429 270.256 214.834 269.356 215.061C268.394 215.294 267.401 215.372 266.415 215.293C265.313 215.209 264.225 214.999 263.171 214.668L261.697 217.476L260.56 217.104L262.055 214.296C259.317 213.352 257.052 211.381 255.738 208.8L257.675 207.515C258.076 208.584 258.72 209.546 259.556 210.323C260.569 211.288 261.761 212.044 263.066 212.548L267.124 204.876L266.969 204.756C266.076 204.216 265.211 203.631 264.379 203.001C263.735 202.529 263.179 201.947 262.736 201.282C262.367 200.723 262.17 200.069 262.168 199.4C262.208 198.615 262.434 197.85 262.828 197.168C263.268 196.313 263.877 195.557 264.617 194.943C265.322 194.361 266.129 193.916 266.997 193.63C267.904 193.338 268.852 193.196 269.805 193.209C270.863 193.22 271.915 193.366 272.936 193.644L274.466 190.738L275.603 191.11L274.08 193.981C275.281 194.39 276.394 195.024 277.358 195.848C278.19 196.585 278.869 197.477 279.359 198.474L277.484 199.716ZM271.279 211.095C271.562 210.617 271.71 210.071 271.707 209.516C271.678 209.012 271.51 208.526 271.223 208.112C270.87 207.592 270.437 207.132 269.938 206.75C269.289 206.234 268.612 205.753 267.91 205.311L263.93 212.836C265.367 213.377 266.921 213.532 268.436 213.285C269.047 213.164 269.621 212.903 270.114 212.523C270.608 212.144 271.006 211.655 271.279 211.095ZM265.179 197.575C264.915 198.029 264.761 198.539 264.73 199.063C264.731 199.514 264.86 199.954 265.102 200.334C265.41 200.804 265.8 201.216 266.253 201.548C266.867 202.02 267.504 202.461 268.162 202.868L272.1 195.427C270.694 194.937 269.171 194.898 267.741 195.315C266.627 195.709 265.709 196.519 265.179 197.575Z" fill="#2E353A"/>
<path d="M281.724 179.956C281.724 179.956 289.179 180.307 288.393 173.463C287.382 164.723 297.603 164.428 296.374 161.094" stroke="#4365C3" stroke-linecap="round" stroke-linejoin="round"/>
</g>
<defs>
<clipPath id="clip0_7_749">
<rect width="500" height="500" fill="white"/>
</clipPath>
</defs>
</svg>
