<?xml version="1.0" standalone="no"?>
<!DOCTYPE svg PUBLIC "-//W3C//DTD SVG 20010904//EN"
 "http://www.w3.org/TR/2001/REC-SVG-20010904/DTD/svg10.dtd">
<svg version="1.0" xmlns="http://www.w3.org/2000/svg"
 width="4114.000000pt" height="2859.000000pt" viewBox="0 0 4114.000000 2859.000000"
 preserveAspectRatio="xMidYMid meet">

<g transform="translate(0.000000,2859.000000) scale(0.100000,-0.100000)"
fill="#202484" stroke="none">
<path d="M27880 28460 c-911 -59 -1783 -473 -2440 -1157 -490 -510 -820 -1132
-954 -1798 -44 -219 -59 -367 -60 -595 -1 -211 -1 -216 24 -265 20 -39 36 -55
72 -73 l46 -23 2685 0 c1476 0 2697 3 2713 7 82 19 142 79 164 163 9 33 12
425 12 1501 0 1347 -1 1461 -17 1516 -23 80 -55 132 -119 192 -58 55 -124 91
-326 177 -628 268 -1252 391 -1800 355z"/>
<path d="M16060 27159 c-338 -3 -628 -9 -645 -13 -16 -4 -61 -14 -100 -23
-357 -81 -639 -389 -686 -747 -49 -375 168 -768 516 -936 107 -52 202 -76 370
-94 356 -39 427 -39 2910 -27 3646 17 4044 21 4175 48 282 56 488 247 623 578
61 149 81 249 75 384 -9 187 -78 341 -217 482 -120 121 -258 202 -460 269
-198 66 -233 69 -936 79 -695 10 -4654 10 -5625 0z"/>
<path d="M8928 24489 c-195 -19 -385 -72 -513 -144 -390 -218 -552 -677 -391
-1106 53 -141 118 -241 231 -354 111 -111 197 -166 326 -209 177 -59 -352 -55
7019 -58 6426 -3 6770 -2 6871 15 218 36 355 91 492 198 149 116 271 309 318
504 28 114 30 305 5 408 -96 401 -451 689 -921 746 -109 13 -13299 13 -13437
0z"/>
<path d="M8025 21823 c-55 -2 -197 -10 -315 -18 -1294 -94 -2487 -517 -3540
-1256 -824 -578 -1541 -1314 -2043 -2096 -565 -880 -909 -1839 -1046 -2913
-140 -1096 -74 -2071 205 -3047 346 -1212 1090 -2386 2118 -3345 1190 -1110
2715 -1753 4434 -1868 198 -13 716 -13 914 0 1070 72 2050 350 2943 837 293
160 379 219 445 307 49 64 210 464 609 1505 56 145 118 295 138 333 83 159
179 170 313 39 31 -31 206 -240 390 -466 785 -963 1554 -1904 1684 -2060 319
-385 842 -993 848 -987 7 7 109 265 233 592 62 161 238 617 505 1305 72 187
171 444 220 570 48 127 163 424 255 660 92 237 200 516 240 620 148 385 347
900 485 1255 78 201 182 469 230 595 49 127 163 424 255 660 92 237 200 516
240 620 187 486 355 920 485 1255 78 201 182 469 230 595 48 127 217 563 375
970 158 407 327 844 375 970 81 212 293 760 388 1002 l40 102 -67 21 c-58 19
-102 23 -361 32 -332 11 -1315 4 -1635 -12 -202 -10 -212 -11 -271 -40 -90
-44 -200 -145 -271 -250 -73 -108 -168 -325 -278 -635 -31 -88 -161 -430 -290
-760 -128 -330 -283 -730 -345 -890 -62 -159 -153 -393 -202 -520 -49 -126
-163 -419 -253 -650 -89 -231 -233 -600 -318 -820 -86 -220 -222 -569 -302
-775 -81 -206 -187 -478 -235 -605 -49 -126 -159 -399 -245 -605 -86 -206
-177 -426 -202 -487 -26 -62 -49 -113 -52 -113 -7 1 -911 1131 -1107 1385 -81
105 -153 206 -162 225 -10 25 -13 60 -10 125 4 86 10 103 116 380 139 363 288
752 352 915 27 69 125 321 218 560 173 443 222 569 657 1690 294 759 380 981
564 1455 77 198 139 361 137 362 -2 2 -43 17 -92 34 l-88 31 -881 1 c-947 2
-1127 -5 -1226 -42 -123 -47 -287 -193 -342 -304 -38 -79 -245 -572 -417 -997
-163 -402 -232 -577 -630 -1600 -149 -382 -309 -792 -355 -910 -198 -508 -433
-1111 -568 -1460 -80 -206 -245 -631 -367 -945 -121 -313 -257 -662 -300 -775
-353 -914 -500 -1291 -515 -1320 -37 -72 -96 -149 -152 -199 -83 -75 -190
-123 -408 -185 -1096 -312 -2084 -310 -3027 5 -691 230 -1354 647 -1942 1219
-752 733 -1214 1628 -1360 2640 -69 475 -67 1060 5 1565 203 1424 955 2568
2219 3373 595 379 1206 617 1850 722 429 69 962 69 1412 0 459 -70 812 -174
1463 -430 143 -56 304 -120 358 -141 l99 -38 19 45 c20 43 20 68 17 1212 -3
1329 6 1197 -94 1298 -79 79 -122 99 -289 138 -83 19 -281 66 -440 105 -657
159 -982 210 -1465 231 -220 9 -329 10 -575 3z"/>
<path d="M24083 21734 c-6 -16 -91 -234 -188 -484 -213 -548 -380 -979 -525
-1355 -98 -254 -369 -956 -600 -1550 -124 -320 -445 -1149 -540 -1395 -44
-113 -195 -502 -335 -865 -141 -363 -296 -763 -345 -890 -49 -126 -211 -545
-360 -930 -379 -979 -739 -1907 -873 -2255 -131 -340 -568 -1466 -698 -1803
-49 -126 -89 -230 -89 -232 0 -2 424 -4 943 -5 518 -1 996 -2 1062 -3 250 -1
423 73 551 235 86 111 65 62 529 1273 42 110 105 274 140 365 35 91 152 395
260 675 108 281 230 596 270 700 41 105 207 534 370 955 163 421 318 821 345
890 27 69 164 422 305 785 229 588 337 857 461 1149 36 83 41 90 82 107 86 37
82 39 133 -69 40 -85 82 -142 335 -457 292 -364 499 -616 676 -824 110 -130
151 -199 169 -287 23 -113 20 -124 -254 -814 -137 -345 -360 -911 -480 -1220
-151 -387 -440 -1124 -537 -1370 -48 -124 -129 -328 -178 -455 -49 -126 -182
-466 -295 -755 -114 -289 -235 -599 -271 -690 l-64 -165 920 -3 c1078 -3 1415
5 1468 32 51 28 144 120 189 190 63 96 312 691 605 1443 57 147 170 437 251
643 80 206 191 490 245 630 54 140 159 410 233 600 180 460 252 645 397 1020
67 173 203 522 302 775 99 253 222 568 273 700 103 265 262 672 500 1280 86
220 188 479 225 575 208 534 211 540 293 623 70 69 139 104 337 170 340 113
677 186 1075 233 177 21 705 30 908 15 1047 -77 2011 -484 2834 -1197 158
-137 419 -404 558 -573 399 -481 690 -1005 885 -1591 271 -811 311 -1648 123
-2580 -60 -301 -175 -674 -293 -950 -380 -892 -1025 -1630 -1915 -2192 -689
-435 -1398 -672 -2185 -729 -181 -13 -597 -7 -765 11 -442 48 -825 132 -1240
273 -129 44 -721 270 -939 357 -27 11 -50 19 -52 17 -2 -1 -4 -545 -5 -1207
-1 -1360 -8 -1254 78 -1330 53 -46 135 -80 370 -151 464 -141 992 -248 1438
-294 360 -36 824 -46 1165 -25 782 50 1545 231 2331 553 1168 479 2113 1178
2866 2120 450 562 835 1239 1128 1987 266 677 412 1299 471 2010 21 247 23
792 5 1045 -101 1430 -553 2697 -1349 3790 -593 813 -1411 1558 -2237 2037
-717 416 -1442 685 -2300 852 -817 159 -1647 180 -2425 60 -352 -54 -642 -123
-1045 -246 -105 -32 -865 -315 -1058 -394 -387 -158 -641 -365 -784 -639 -23
-44 -71 -167 -107 -273 -36 -106 -161 -427 -277 -715 -116 -287 -249 -620
-297 -739 -48 -120 -90 -217 -94 -215 -4 1 -143 169 -310 372 -608 742 -2308
2817 -2511 3065 -115 140 -224 273 -241 294 l-33 40 -10 -30z"/>
<path d="M8268 15390 c-297 -47 -571 -272 -689 -566 -105 -262 -67 -580 95
-808 56 -79 176 -192 251 -238 274 -166 627 -165 916 2 89 52 239 199 288 282
40 69 75 153 98 239 26 95 24 317 -5 420 -86 315 -341 571 -645 649 -93 23
-230 32 -309 20z"/>
<path d="M31655 14883 c-336 -71 -604 -334 -669 -655 -39 -192 -9 -384 92
-583 38 -74 63 -108 147 -191 90 -91 110 -106 205 -152 151 -72 215 -87 390
-86 127 1 156 4 235 28 347 103 575 365 617 709 30 237 -63 495 -247 682 -129
132 -256 206 -418 245 -99 24 -250 25 -352 3z"/>
<path d="M21422 4355 c-132 -17 -331 -64 -442 -105 -452 -167 -678 -470 -697
-936 -13 -324 59 -568 219 -740 152 -162 341 -259 661 -340 78 -19 275 -78
437 -131 600 -193 757 -273 821 -416 36 -81 33 -175 -9 -260 -58 -117 -197
-220 -357 -263 -91 -24 -291 -29 -402 -10 -267 46 -492 180 -624 372 -62 89
-148 151 -260 188 -82 27 -168 33 -408 29 l-124 -3 6 -97 c30 -448 214 -751
564 -927 410 -206 860 -270 1303 -185 217 42 525 161 653 252 187 134 359 392
418 631 27 105 36 301 19 404 -52 327 -256 596 -569 754 -98 49 -176 75 -676
218 -671 193 -719 212 -812 313 -117 126 -124 250 -23 407 153 238 572 301
909 137 80 -39 142 -95 225 -201 93 -119 195 -192 321 -227 63 -18 302 -16
395 3 l65 13 3 39 c6 65 -27 235 -66 352 -141 413 -445 633 -992 719 -148 23
-418 28 -558 10z"/>
<path d="M5791 4274 c-164 -44 -296 -179 -362 -371 -11 -32 -107 -501 -215
-1043 -107 -542 -199 -996 -203 -1010 -7 -24 -9 -23 -44 30 -20 30 -47 82 -61
115 -13 33 -76 278 -141 545 -238 986 -344 1407 -373 1478 -67 162 -144 215
-334 228 -121 8 -429 -12 -440 -29 -18 -28 -2 -102 113 -511 67 -237 163 -582
214 -766 107 -387 550 -1941 600 -2107 51 -167 71 -201 145 -238 30 -16 49
-17 155 -10 66 5 183 9 260 9 153 1 164 4 213 61 40 44 51 85 107 380 101 529
442 2136 457 2150 6 7 10 -8 118 -435 124 -496 268 -1158 365 -1685 64 -348
88 -411 173 -454 33 -16 64 -19 277 -19 148 -1 253 3 275 10 90 27 142 102
185 261 93 351 236 868 380 1367 423 1470 566 1972 562 1977 -8 7 -127 22
-269 33 -171 13 -279 1 -363 -40 -70 -34 -100 -63 -149 -144 -54 -91 -87 -202
-216 -746 -276 -1163 -311 -1299 -361 -1420 -26 -63 -50 -108 -52 -100 -3 8
-76 371 -162 805 -290 1464 -297 1494 -366 1578 -38 46 -88 73 -186 98 -91 23
-223 24 -302 3z"/>
<path d="M17940 4258 c-136 -48 -236 -132 -292 -245 -30 -61 -32 -72 -40 -234
-5 -93 -7 -811 -6 -1597 3 -1198 5 -1431 17 -1452 26 -47 73 -101 101 -115 23
-12 217 -15 1217 -21 865 -5 1192 -4 1197 4 3 6 12 99 18 207 8 146 8 220 0
288 -13 104 -28 132 -88 162 -38 19 -60 20 -782 21 -672 1 -747 3 -787 18 -54
21 -100 72 -116 128 -14 51 -13 -47 -10 1393 2 1244 2 1262 -51 1357 -35 65
-113 101 -226 105 -71 3 -99 -1 -152 -19z"/>
<path d="M24315 4270 c-146 -7 -248 -24 -320 -54 -110 -46 -189 -142 -221
-268 -18 -70 -19 -145 -19 -1648 l0 -1576 25 -48 c39 -76 78 -92 210 -87 121
5 173 5 285 0 65 -3 86 -1 111 15 34 20 60 58 75 109 6 20 10 484 9 1240 0
687 3 1207 8 1207 15 0 88 -107 110 -162 12 -29 49 -159 83 -288 157 -604 249
-964 368 -1441 71 -283 138 -533 149 -555 56 -110 145 -143 336 -125 78 8 135
8 200 0 127 -16 186 1 249 71 57 63 65 89 162 490 41 173 136 551 210 840 74
289 172 670 217 848 l81 323 31 -7 c17 -3 32 -7 33 -8 1 -1 7 -40 13 -86 7
-57 10 -456 9 -1208 l-1 -1124 24 -46 c17 -35 35 -53 68 -70 42 -21 56 -22
265 -22 209 0 223 1 265 23 35 17 51 34 70 72 l25 50 -4 1665 c-3 1597 -4
1667 -22 1719 -21 61 -57 118 -79 127 -56 21 -759 27 -908 7 -54 -7 -95 -46
-133 -128 -31 -66 -112 -352 -249 -885 -85 -330 -264 -1011 -368 -1395 -40
-149 -51 -176 -59 -160 -16 29 -196 565 -248 735 -87 286 -195 672 -304 1082
-120 451 -148 544 -185 616 -51 100 -113 138 -254 152 -93 10 -91 10 -317 0z"/>
<path d="M29215 4254 c-155 -38 -266 -154 -365 -383 -41 -94 -153 -402 -325
-891 -87 -247 -497 -1409 -675 -1910 -38 -107 -91 -258 -119 -336 l-49 -141
96 -6 c169 -12 402 -8 475 8 87 18 174 65 235 126 41 41 56 68 107 196 97 245
145 325 223 370 85 50 127 55 547 60 424 6 597 -4 668 -35 87 -39 141 -126
232 -373 83 -225 158 -321 264 -336 63 -9 636 -11 645 -2 3 3 -43 140 -103
305 -60 164 -175 479 -255 699 -79 220 -228 630 -331 910 -102 281 -224 614
-270 740 -239 657 -325 879 -352 907 -15 16 -50 40 -78 53 -101 49 -435 71
-570 39z m353 -1206 c172 -518 342 -1042 342 -1050 0 -5 -218 -8 -484 -8
l-485 0 19 58 c10 31 64 201 120 377 230 722 302 940 313 947 7 4 24 8 39 8
26 0 28 -6 136 -332z"/>
<path d="M10815 4235 c-66 -8 -135 -17 -152 -20 l-33 -6 0 -654 0 -655 -567
-2 c-313 -2 -609 -3 -659 -2 -151 1 -216 39 -244 144 -9 32 -11 135 -9 365 2
176 3 426 1 556 l-2 236 -55 11 c-341 69 -557 15 -646 -161 -52 -100 -52 -100
-59 -777 -3 -349 -5 -1047 -3 -1550 5 -1030 0 -966 82 -1043 93 -88 107 -91
342 -90 190 1 208 2 248 22 34 18 48 33 68 77 l25 55 1 617 c2 615 2 617 25
673 30 75 76 142 108 160 23 12 134 14 693 14 l666 0 2 -805 3 -805 322 0
c309 0 325 1 363 21 22 12 49 36 60 55 20 34 20 54 23 1654 3 1762 3 1735 -52
1829 -18 31 -40 51 -73 68 -44 21 -63 23 -203 25 -85 1 -209 -5 -275 -12z"/>
<path d="M13020 4240 c-740 -4 -943 -8 -975 -19 -140 -47 -208 -117 -253 -263
-15 -48 -17 -206 -19 -1701 l-3 -1647 1317 2 1317 3 9 45 c5 25 10 146 11 270
1 239 -2 259 -50 301 -51 44 -46 44 -909 44 -904 0 -853 -3 -904 61 -39 50
-43 92 -39 428 3 281 6 326 22 363 35 81 9 77 566 84 526 6 538 7 637 58 57
29 111 84 136 140 27 58 34 239 15 351 l-13 75 -550 6 c-567 6 -629 10 -705
49 -88 45 -112 106 -111 285 0 113 24 412 34 421 13 14 469 24 1057 24 l695 0
40 23 c27 15 47 37 62 67 20 41 23 62 25 225 3 167 1 183 -19 220 -13 25 -37
49 -64 65 -53 30 1 29 -1329 20z"/>
<path d="M15190 4239 c-292 -14 -407 -111 -440 -371 -14 -118 -14 -3089 1
-3143 18 -66 53 -103 113 -120 47 -14 190 -15 1217 -13 1123 3 1166 4 1234 23
l70 20 8 65 c5 36 9 153 10 260 2 232 -5 258 -82 294 -46 21 -54 21 -816 22
-757 1 -771 1 -836 22 -80 26 -129 58 -147 95 -17 36 -28 372 -17 562 l7 140
38 36 c72 69 91 71 585 79 474 8 510 12 602 65 56 34 109 97 130 159 19 57 24
221 10 337 l-8 66 -382 6 c-210 4 -468 3 -573 -2 -293 -13 -353 4 -400 114
-15 34 -17 74 -15 270 2 243 8 286 48 329 60 65 5 61 905 62 767 1 820 2 858
19 70 32 82 64 92 249 12 237 -4 299 -88 341 -38 19 -65 19 -1014 20 -536 1
-1036 -2 -1110 -6z"/>
<path d="M31830 4241 c-227 -25 -325 -101 -377 -293 -16 -58 -17 -187 -20
-1508 -2 -883 0 -1491 6 -1565 20 -246 66 -294 284 -295 164 0 352 19 415 42
l52 19 0 437 c1 595 11 728 68 834 50 95 140 128 347 128 157 0 474 -24 541
-41 207 -51 317 -180 343 -401 6 -45 17 -191 26 -323 22 -339 38 -446 75 -521
35 -72 92 -128 147 -144 50 -15 396 -25 547 -15 103 6 117 9 113 24 -3 9 -16
55 -30 103 -42 141 -57 277 -67 611 -10 342 -23 448 -71 592 -50 150 -150 295
-272 392 l-39 31 99 99 c277 280 402 589 364 903 -35 290 -157 529 -345 677
-136 106 -334 177 -566 202 -127 14 -1530 24 -1640 12z m1356 -641 c255 -23
383 -145 416 -397 32 -249 -75 -443 -277 -502 -70 -21 -399 -31 -762 -25
l-353 7 0 457 c0 251 3 460 7 463 10 10 853 8 969 -3z"/>
<path d="M35065 4230 c-230 -8 -281 -18 -352 -69 -29 -21 -51 -51 -75 -98 -31
-64 -33 -73 -33 -173 1 -98 25 -248 46 -281 6 -11 90 -13 436 -14 386 0 431
-2 460 -17 46 -26 90 -84 103 -137 7 -32 11 -444 13 -1331 l3 -1285 21 -57
c26 -69 76 -144 101 -152 44 -14 273 -24 454 -19 l198 6 2 1496 3 1496 445 6
c484 6 501 8 556 63 38 38 54 102 54 214 0 111 -17 292 -30 330 l-12 32 -1092
-2 c-600 -1 -1185 -5 -1301 -8z"/>
</g>
</svg>
